<svg width="325" height="164" viewBox="0 0 325 164" fill="none" xmlns="http://www.w3.org/2000/svg">
<g clip-path="url(#clip0_2235_1038)">
<path d="M222.256 80.3812C223.999 80.131 230.394 86.1208 223.619 94.5569C217.856 90.8018 219.773 80.7377 222.256 80.3812Z" fill="#090814"/>
<path d="M221.575 106.279C221.625 106.207 221.264 106.014 222.665 104.916C225.054 103.044 230.679 101.507 233.838 101.508C229.781 100.742 226.124 102.59 222.665 104.371C223.965 95.2384 236.506 98.7399 235.473 102.054C235.353 102.441 228.782 105.612 228.252 105.734C224.312 106.64 223.47 104.806 221.575 106.279Z" fill="#090814"/>
<path d="M227.843 123.999C227.913 123.916 227.968 123.54 229.205 122.363C231.901 119.799 237.013 117.793 240.515 119.91C243.203 121.534 236.983 125.148 235.882 125.362C233.703 125.785 229.862 125.095 227.843 123.999Z" fill="#090814"/>
<path d="M236.018 113.64C235.91 113.744 235.557 113.283 235.473 114.185C232.838 116.379 231.379 110.616 232.748 106.688C235.317 99.3177 240.463 108.813 236.018 113.64Z" fill="#090814"/>
<path d="M242.286 109.278L253.459 108.051C247.568 107.789 240.72 109.484 243.921 107.097C247.295 104.581 258.596 105.756 251.688 110.368C248.175 112.714 245.413 111.441 242.286 109.278Z" fill="#090814"/>
<path d="M224.845 96.1926C223.162 98.8291 222.256 103.218 221.03 106.143L221.575 106.279C219.906 108.68 218.752 113.281 218.305 116.229L223.619 128.906C226.991 124.656 230.922 118.247 235.201 115.003C235.25 115.29 235.096 115.618 234.928 115.821C233.084 118.038 230.635 119.787 229.205 122.363C227.968 123.54 227.913 123.916 227.843 123.999C227.353 124.574 224.086 128.993 224.028 129.315C223.935 129.824 225.779 135.493 226.48 135.721C226.098 136.072 225.829 136.038 225.935 136.539C223.81 129.842 217.028 113.414 213.944 106.279C214.119 106.299 214.349 106.24 214.489 106.279L217.896 114.73C218.741 111.773 219.7 110.98 218.305 109.278H218.577C219.969 111.041 220.915 103.401 224.573 96.1926L224.845 96.1926Z" fill="#090814"/>
<path d="M243.921 107.097C240.72 109.484 247.568 107.789 253.46 108.051L242.286 109.278C242.145 109.18 241.918 109.049 241.741 109.005C242.401 108.341 243.039 107.541 243.649 106.824C243.724 106.789 243.853 106.862 243.921 106.824V107.097Z" fill="white"/>
<path d="M243.649 106.824C243.038 107.541 242.401 108.341 241.741 109.005C239.948 110.809 237.828 112.407 236.291 114.457C236.254 114.481 235.864 114.452 235.473 114.73C235.481 114.55 235.457 114.363 235.473 114.185C235.723 113.977 235.809 113.867 236.018 113.64C238.372 111.368 240.968 109.321 243.104 106.824C243.247 106.776 243.545 106.873 243.649 106.824Z" fill="#090814"/>
<path d="M222.665 104.916V104.371C226.124 102.59 229.781 100.742 233.838 101.508C230.679 101.507 225.054 103.044 222.665 104.916Z" fill="white"/>
<path d="M218.305 109.278C219.7 110.98 218.741 111.773 217.896 114.73L214.489 106.279C214.723 106.345 218.151 109.09 218.305 109.278Z" fill="white"/>
<path d="M224.845 96.1926H224.572C227.249 90.9167 230.971 86.2362 233.838 81.0628C237.155 77.2777 244.272 71.8438 249.508 73.566C253.005 74.7162 250.425 77.984 248.69 79.5634C242.482 85.2161 230.519 83.6574 227.706 92.1034C232.482 86.443 239.382 90.498 239.561 92.2398C239.853 95.0853 230.713 99.2509 226.344 94.2843C225.713 94.8136 225.278 95.5139 224.845 96.1926Z" fill="#090814"/>
<path d="M232.339 91.2856C237.963 90.5642 241.944 91.9701 231.794 91.8308L227.434 93.7391L227.162 93.1939C228.799 92.5307 230.561 91.5137 232.339 91.2856Z" fill="white"/>
<path d="M246.646 103.826C247.13 103.053 248.953 96.5379 254.958 95.92C264.787 94.9087 256.355 103.595 253.051 104.098C250.657 104.463 248.386 103.12 246.646 103.826Z" fill="#090814"/>
<path d="M257.956 97.283L258.637 97.4193C245.259 104.341 242.837 104.686 257.956 97.283Z" fill="white"/>
<path d="M226.889 110.913C229.049 110.429 232.779 117.745 226.889 123.999C221.501 119.357 225.027 111.331 226.889 110.913Z" fill="#090814"/>
<path d="M227.161 111.731C228.02 115.072 227.394 119.508 226.889 122.908L227.161 111.731Z" fill="white"/>
<path d="M246.647 103.826C245.999 104.862 244.996 106.238 243.922 106.824C243.853 106.862 243.724 106.789 243.649 106.824C243.545 106.873 243.247 106.776 243.104 106.824C242.124 107.154 241.923 107.759 241.605 107.642C236.739 101.098 243.916 91.4886 245.829 99.3275C246.833 103.442 243.918 106.262 246.647 103.826Z" fill="#090814"/>
<path d="M243.24 97.5557L243.376 101.509C241.852 112.105 242.454 102.33 243.24 97.5557Z" fill="white"/>
<path d="M236.018 113.64C235.809 113.867 235.723 113.977 235.473 114.185C235.557 113.283 235.91 113.744 236.018 113.64Z" fill="white"/>
<path d="M234.928 115.821C235.096 115.618 235.25 115.29 235.201 115.003C235.216 114.991 235.185 114.935 235.473 114.73C235.864 114.452 236.254 114.481 236.291 114.457C244.324 109.35 249.035 112.538 245.148 115.548C242.246 117.794 237.978 117.737 234.928 115.821Z" fill="#090814"/>
<path d="M246.238 113.367C246.457 113.458 246.458 113.819 246.238 113.912C243.833 114.934 225.851 116 246.238 113.367Z" fill="white"/>
<path d="M234.928 156.985L234.383 156.848C234.672 156.454 234.906 156.465 234.928 156.439C234.892 156.509 234.949 156.775 234.928 156.985Z" fill="white"/>
<path d="M233.566 157.393C233.511 157.612 233.508 158.218 233.702 158.348C233.874 158.117 234.845 157.024 234.928 156.985C236.12 156.424 239.873 155.883 241.332 155.894C242.152 155.9 250.49 157.24 250.462 157.939C247.355 161.211 236.913 162.17 233.293 159.983C237.205 158.301 241.739 159.2 245.829 157.939L232.476 159.302" fill="#090814"/>
<path d="M234.928 156.439C234.905 156.465 234.672 156.454 234.383 156.848L234.928 156.985C234.845 157.024 233.874 158.117 233.702 158.348C233.508 158.218 233.511 157.612 233.566 157.393" fill="#555758"/>
<path d="M232.748 160.528V159.847C232.923 159.521 233.081 160.074 233.293 159.983C236.913 162.17 247.355 161.21 250.462 157.939C250.49 157.24 242.152 155.9 241.332 155.894C239.873 155.883 236.12 156.424 234.928 156.984C234.949 156.775 234.892 156.509 234.928 156.439C235.566 155.732 236.518 155.179 237.108 154.395C237.339 148.609 243.894 143.543 248.963 141.718C257.604 138.607 256.371 143.527 252.369 148.67C246.139 156.677 234.95 153.904 235.746 156.303C240.89 154.778 246.314 155.898 251.279 157.666C247.524 162.216 237.891 161.985 232.748 160.528Z" fill="#090814"/>
<path d="M251.961 141.173C255.966 140.671 255.605 142.583 253.187 146.762C251.031 150.488 245.868 153.822 241.605 154.258C235.25 154.909 242.915 152.587 247.328 149.351C253.913 143.718 239.608 153.802 238.335 154.258C235.975 155.104 239.035 149.002 241.605 146.625C243.261 145.093 249.901 141.432 251.961 141.173Z" fill="#090814"/>
<path d="M114.917 66.9192C112.885 66.6275 105.428 73.6117 113.328 83.4485C120.048 79.07 117.813 67.3349 114.917 66.9192Z" fill="#090814"/>
<path d="M115.712 97.117C115.653 97.0334 116.074 96.8081 114.44 95.5276C111.655 93.3447 105.096 91.5523 101.412 91.5542C106.143 90.6602 110.407 92.8159 114.44 94.8919C112.924 84.2431 98.3013 88.326 99.5054 92.19C99.6461 92.6412 107.308 96.3389 107.926 96.4812C112.519 97.5382 113.501 95.3997 115.712 97.117Z" fill="#090814"/>
<path d="M108.403 117.779C108.321 117.682 108.257 117.244 106.814 115.871C103.671 112.882 97.7106 110.543 93.6267 113.011C90.4919 114.905 97.7452 119.118 99.0287 119.368C101.569 119.862 106.048 119.056 108.403 117.779Z" fill="#090814"/>
<path d="M98.8696 105.699C98.996 105.821 99.4074 105.283 99.5052 106.335C102.578 108.893 104.279 102.174 102.683 97.5937C99.687 88.9996 93.6873 100.072 98.8696 105.699Z" fill="#090814"/>
<path d="M91.561 100.614L78.5326 99.1831C85.4022 98.8779 93.3868 100.854 89.6544 98.0705C85.72 95.1366 72.5436 96.5066 80.5981 101.885C84.6945 104.62 87.915 103.135 91.561 100.614Z" fill="#090814"/>
<path d="M111.898 85.3557C113.861 88.43 114.917 93.5472 116.347 96.958L115.711 97.117C117.657 99.9167 119.003 105.281 119.525 108.719L113.328 123.5C109.396 118.544 104.812 111.071 99.823 107.289C99.7652 107.624 99.9448 108.007 100.141 108.242C102.292 110.828 105.147 112.867 106.814 115.871C108.257 117.244 108.321 117.682 108.403 117.779C108.973 118.449 112.783 123.602 112.851 123.977C112.959 124.571 110.809 131.182 109.992 131.447C110.437 131.856 110.75 131.816 110.627 132.401C113.105 124.592 121.013 105.436 124.609 97.1169C124.405 97.14 124.137 97.0708 123.973 97.1169L120.001 106.971C119.015 103.523 117.897 102.599 119.525 100.614H119.207C117.584 102.67 116.481 93.7607 112.216 85.3557L111.898 85.3557Z" fill="#090814"/>
<path d="M89.6545 98.0705C93.3869 100.854 85.4023 98.8779 78.5327 99.1831L91.5611 100.613C91.726 100.499 91.9908 100.347 92.1967 100.296C91.4269 99.5214 90.6839 98.5887 89.9723 97.7526C89.8844 97.711 89.7347 97.7964 89.6545 97.7526V98.0705Z" fill="white"/>
<path d="M89.9722 97.7526C90.6838 98.5886 91.4268 99.5213 92.1965 100.296C94.2878 102.399 96.7591 104.262 98.5519 106.653C98.5943 106.68 99.0495 106.646 99.5051 106.971C99.4962 106.762 99.5244 106.543 99.5051 106.335C99.2136 106.092 99.1135 105.964 98.8696 105.699C96.1248 103.05 93.0982 100.663 90.6077 97.7526C90.4412 97.6966 90.0929 97.8099 89.9722 97.7526Z" fill="#090814"/>
<path d="M114.44 95.5276V94.8918C110.407 92.8158 106.142 90.6601 101.412 91.5542C105.095 91.5522 111.654 93.3446 114.44 95.5276Z" fill="white"/>
<path d="M119.524 100.614C117.897 102.599 119.015 103.523 120.001 106.971L123.973 97.1169C123.701 97.1937 119.704 100.395 119.524 100.614Z" fill="white"/>
<path d="M111.898 85.3557H112.216C109.094 79.2038 104.755 73.7463 101.412 67.7139C97.5444 63.3003 89.2457 56.9643 83.1403 58.9724C79.0626 60.3136 82.0709 64.1239 84.0936 65.9656C91.3329 72.5568 105.282 70.7394 108.562 80.5876C102.993 73.9874 94.9472 78.7156 94.7387 80.7466C94.3982 84.0646 105.056 88.9218 110.15 83.1306C110.886 83.7478 111.393 84.5643 111.898 85.3557Z" fill="#090814"/>
<path d="M103.16 79.634C96.6032 78.7927 91.9602 80.4321 103.795 80.2697L108.88 82.4948L109.197 81.8591C107.288 81.0857 105.233 79.9 103.16 79.634Z" fill="white"/>
<path d="M86.4766 94.2561C85.9132 93.3546 83.7872 85.7583 76.7847 85.0378C65.324 83.8586 75.1566 93.9869 79.0091 94.5739C81.8005 94.9993 84.4485 93.4336 86.4766 94.2561Z" fill="#090814"/>
<path d="M73.2895 86.6272L72.4951 86.7861C88.0943 94.8567 90.9191 95.2597 73.2895 86.6272Z" fill="white"/>
<path d="M109.515 102.521C106.995 101.956 102.647 110.487 109.515 117.779C115.796 112.366 111.686 103.008 109.515 102.521Z" fill="#090814"/>
<path d="M109.197 103.474C108.196 107.37 108.926 112.543 109.515 116.507L109.197 103.474Z" fill="white"/>
<path d="M86.4771 94.2561C87.2327 95.4651 88.402 97.0693 89.6547 97.7527C89.7349 97.7965 89.8846 97.7111 89.9725 97.7527C90.0932 97.81 90.4415 97.6967 90.608 97.7527C91.7508 98.1374 91.9854 98.8421 92.3557 98.7063C98.0292 91.0752 89.6611 79.8708 87.4303 89.0112C86.2594 93.8093 89.6588 97.097 86.4771 94.2561Z" fill="#090814"/>
<path d="M90.4489 86.9451L90.29 91.5542C92.0679 103.909 91.3655 92.5124 90.4489 86.9451Z" fill="white"/>
<path d="M98.8696 105.699C99.1135 105.964 99.2137 106.092 99.5052 106.335C99.4074 105.283 98.9959 105.821 98.8696 105.699Z" fill="white"/>
<path d="M100.141 108.242C99.9447 108.007 99.7651 107.624 99.823 107.289C99.8051 107.275 99.841 107.21 99.5052 106.971C99.0495 106.646 98.5943 106.68 98.5519 106.653C89.1852 100.698 83.6918 104.415 88.2245 107.924C91.6076 110.544 96.585 110.477 100.141 108.242Z" fill="#090814"/>
<path d="M86.9535 105.382C86.6985 105.488 86.6971 105.908 86.9535 106.017C89.7576 107.209 110.725 108.452 86.9535 105.382Z" fill="white"/>
<path d="M100.141 156.241L100.776 156.082C100.439 155.622 100.167 155.635 100.141 155.605C100.183 155.686 100.117 155.997 100.141 156.241Z" fill="white"/>
<path d="M101.729 156.718C101.793 156.972 101.797 157.679 101.571 157.83C101.37 157.561 100.237 156.286 100.141 156.241C98.7505 155.587 94.3745 154.956 92.6731 154.969C91.7169 154.977 81.9956 156.539 82.0279 157.353C85.6504 161.169 97.8257 162.287 102.047 159.738C97.4852 157.776 92.1986 158.824 87.4299 157.353L103 158.943" fill="#090814"/>
<path d="M100.141 155.605C100.167 155.635 100.439 155.622 100.776 156.082L100.141 156.241C100.237 156.286 101.37 157.561 101.571 157.83C101.797 157.679 101.794 156.972 101.729 156.718" fill="#555758"/>
<path d="M102.683 160.373V159.579C102.479 159.198 102.294 159.844 102.047 159.738C97.8258 162.287 85.6504 161.169 82.0279 157.353C81.9957 156.539 91.7169 154.977 92.6731 154.969C94.3746 154.956 98.7505 155.587 100.141 156.241C100.117 155.997 100.183 155.686 100.141 155.605C99.3971 154.781 98.287 154.136 97.5985 153.221C97.3296 146.475 89.6859 140.568 83.7757 138.44C73.6998 134.813 75.1372 140.549 79.8036 146.546C87.0688 155.882 100.115 152.649 99.1873 155.446C93.1886 153.668 86.8645 154.974 81.0746 157.036C85.4532 162.341 96.6856 162.072 102.683 160.373Z" fill="#090814"/>
<path d="M80.2802 137.804C75.6103 137.219 76.0303 139.448 78.8502 144.321C81.3646 148.665 87.3842 152.554 92.3553 153.062C99.7652 153.82 90.8279 151.114 85.6822 147.341C78.0042 140.772 94.6837 152.53 96.1685 153.062C98.9198 154.048 95.3517 146.933 92.3553 144.162C90.4238 142.375 82.6819 138.106 80.2802 137.804Z" fill="#090814"/>
<path d="M137.628 44.3052C133.764 28.5742 143.379 12.6878 159.105 8.82215C174.831 4.95645 190.712 14.5752 194.576 30.3063C197.71 43.0643 191.977 55.9231 181.31 62.3904L184.745 100.134L150.937 83.6398C150.937 83.6398 155.102 74.4253 156.213 64.9167C147.277 61.7046 140.064 54.2215 137.628 44.3052Z" fill="#FFB6B6"/>
<path d="M182.152 72.6973C182.152 72.6973 169.898 94.2262 151.217 73.9585L116.543 122.994L133.099 162.863L208.758 164L205.453 117.473L182.152 72.6973Z" fill="#D6D6E3"/>
<path d="M152.253 78.6732L155.786 72.6973C155.786 72.6973 112.942 79.8703 112.928 91.6221L93.6124 151.595C92.5918 154.764 97.1491 158.238 99.5531 160.54C101.143 162.063 103.251 162.925 105.452 162.953L122.33 163.169L122.739 144.099L134.543 107.875L152.253 78.6732Z" fill="#D6D6E3"/>
<path d="M180.907 77.3559L181.944 72.6412C181.944 72.6412 220.219 78.553 220.233 90.3049L239.548 150.278C240.569 153.447 236.012 156.92 233.608 159.223C232.018 160.745 229.91 161.608 227.709 161.636L210.831 161.852L210.422 142.782L198.618 106.557L180.907 77.3559Z" fill="#D6D6E3"/>
<path d="M184.508 73.1784C184.406 73.1406 184.28 73.1062 184.128 73.0753C180.487 72.3361 180.087 72.9423 179.223 65.7149C179.084 64.5534 178.975 63.3051 178.678 62.171C181.869 59.0733 186.14 52.6065 187.944 48.4042C188.42 48.0248 190.049 47.0137 190.124 46.9048C190.124 46.9048 190.124 46.9357 190.396 46.6322C194.765 39.5521 193.672 32.9539 188.897 38.7265C181.045 30.3963 167.103 29.6705 160.555 21.0069C155.041 22.7229 150.944 28.9251 149.246 34.2285C147.068 41.0289 148.701 48.4042 148.701 48.4042C149.923 52.2284 155.796 60.5341 158.512 62.9888C159.129 65.7757 158.802 68.2662 158.239 70.8945C157.993 72.0434 156.833 73.5992 156.876 74.0295L141.615 72.1212C141.394 71.5892 136.719 70.8745 133.985 63.9429C127.802 48.2663 134.826 5.30995 157.83 5.46814C164.174 -3.09003 177.742 -0.43557 185.082 5.46814C199.546 17.1005 209.13 55.5257 198.572 67.4868C194.306 72.32 186.946 72.3511 185.617 73.1371L184.508 73.1784Z" fill="#090814"/>
<path d="M190.396 46.632C191.58 46.7649 192.716 48.765 192.576 50.0396C192.296 52.5902 188.049 52.6022 188.488 50.5847C188.612 50.0163 190.745 49.4736 190.124 46.632" fill="white"/>
<path d="M169.467 119.059C169.373 120.616 169.148 122.111 169.537 123.664C172.33 121.148 176.98 120.629 175.73 122.301C175.489 122.623 172.032 123.266 171.857 124.988C177.949 122.184 179.746 119.131 175.27 127.338C172.621 129.463 169.831 127.698 169.441 127.939C168.174 128.721 169.701 140.885 170.511 140.33C170.874 133.591 171.043 149.389 174.064 151.89C175.022 152.683 173.536 148.286 174.99 150.1C175.168 150.322 175.279 152.347 175.257 152.784C175.252 152.891 174.656 152.512 174.795 154.507C173.581 152.826 172.834 150.843 171.876 149.009C171.514 146.778 169.719 140.048 168.489 138.608C165.332 134.913 164.27 140.047 160.833 132.253C166.952 131.941 168.637 138.583 169.25 138.144C167.501 132.978 168.817 127.629 168.612 127.111C168.198 126.061 165.304 124.04 167.718 127.476C163.743 127.458 162.842 124.605 160.758 121.849C163.884 121.082 167.149 122.172 168.578 125.222C168.811 123.456 169.144 116.602 167.279 116.178C166.755 116.059 166.231 120.22 157.969 113.966C161.899 111.259 166.866 110.987 168.471 116.243C171.011 111.465 168.778 113.987 168.602 113.858C168.135 113.515 169.765 110.439 162.301 104.586C166.424 111.084 151.139 105.514 160.611 104.355C159.094 96.3837 161.144 102.373 162.433 103.856C163.122 104.65 168.317 110.094 168.764 110.047C168.938 110.029 169.539 107.416 171.181 108.753C172.948 110.192 169.799 114.802 171.417 113.69C174.27 111.728 169.464 104.559 170.877 101.696C173.083 97.2283 171.231 103.314 173.594 102.489C168.29 109.025 177.748 110.382 169.035 116.872C169.001 117.55 169.474 118.948 169.467 119.059Z" fill="#FF6363"/>
<path d="M181.906 123.632C180.937 124.62 178.876 125.118 177.568 125.557C173.941 128.73 175.102 143.623 176.229 148.354C175.377 148.318 175.287 148.022 175.235 148.023L174.469 143.518L174.573 148.355C174.181 148.468 174.131 148.413 174.109 148.422C174.002 146.428 173.63 144.844 173.773 142.79C173.86 141.547 174.642 141.989 174.666 141.596C174.7 141.047 174.301 137.948 174.463 135.235C174.582 133.226 175.663 127.148 175.515 126.089C175.139 123.399 169.903 118.421 174.913 118.601C174.647 116.783 176.281 113.948 177.127 111.774C177.48 110.865 179.115 108.463 179.011 107.598C178.85 106.254 177.811 106.957 177.387 106.175C176.757 105.013 178.036 99.7685 179.369 100.209C180.157 100.469 178.474 103.934 183.344 99.8744C182.445 106.417 184.726 102.876 185.6 104.047C187.277 106.297 179.394 104.793 176.83 113.829C175.795 117.478 177.236 120.266 180.509 116.377C182.172 119.462 180.128 121.251 180.579 121.811C180.919 122.233 185.011 120.467 181.906 123.632Z" fill="#6C63FF"/>
<path d="M153.756 112.273C154.554 114.153 155.164 116.037 156.527 117.632C158.333 113.049 163.482 109.724 162.992 112.415C162.897 112.934 159.22 115.707 160.019 117.828C165.526 110.982 165.85 106.352 165.393 118.589C163.528 122.629 159.226 122.189 158.909 122.699C157.881 124.356 166.772 137.728 167.398 136.603C163.89 128.489 173.31 146.915 178.313 148.082C179.899 148.452 175.59 144.165 178.354 145.442C178.691 145.598 180.004 147.908 180.234 148.433C180.291 148.562 179.37 148.465 180.698 150.724C178.293 149.461 176.26 147.573 174.066 145.983C172.339 143.578 166.305 136.735 164.022 135.766C158.163 133.278 159.915 139.917 151.335 132.787C158.328 128.847 164.18 135.649 164.644 134.776C159.577 129.742 157.997 122.701 157.455 122.213C156.356 121.224 151.783 120.545 156.62 123.163C151.947 125.464 149.226 122.645 145.174 120.632C148.391 117.907 152.855 117.276 156.311 120.019C155.554 117.812 151.942 109.58 149.508 110.173C148.826 110.339 150.639 115.524 137.301 113.017C140.329 107.549 145.993 104.328 150.944 109.553C151.132 102.466 149.987 106.728 149.705 106.68C148.957 106.55 149.072 101.991 136.904 99.4885C145.532 104.699 124.359 107.098 134.789 100.205C128.355 91.7453 134.256 97.5694 136.633 98.5567C137.905 99.0849 147.174 102.432 147.671 102.117C147.864 101.994 147.043 98.5789 149.749 99.1875C152.662 99.8424 151.66 107.088 152.908 104.838C155.108 100.871 145.287 95.273 145.273 91.0904C145.251 84.5634 146.633 92.7809 148.921 90.4332C146.519 101.195 158.4 97.261 151.973 109.961C152.329 110.776 153.699 112.138 153.756 112.273Z" fill="#6C63FF"/>
<path d="M173.65 116.662C173.091 118.386 170.966 120.174 169.689 121.454C167.288 127.293 177.343 144.077 181.427 148.966C180.407 149.421 180.129 149.126 180.068 149.159L176.54 144.323L179.486 149.935C179.092 150.296 179.001 150.261 178.981 150.284C177.692 148.008 176.33 146.368 175.299 143.876C174.675 142.368 175.851 142.43 175.65 141.955C175.368 141.291 173.092 137.891 171.697 134.615C170.664 132.189 168.383 124.431 167.592 123.276C165.58 120.342 156.534 117.564 162.514 114.849C161.142 112.872 161.402 108.594 161.124 105.551C161.008 104.278 161.523 100.507 160.896 99.5529C159.922 98.0713 159.115 99.5026 158.16 98.8328C156.744 97.8389 155.182 90.9421 157.002 90.6799C158.078 90.5249 158.127 95.5706 161.467 87.9658C164.233 96.1624 164.84 90.6775 166.548 91.541C169.828 93.199 159.707 96.0411 161.976 108.133C162.893 113.017 166.21 115.444 167.777 108.972C171.529 111.617 170.176 114.909 171.032 115.302C171.677 115.598 175.443 111.137 173.65 116.662Z" fill="#6C63FF"/>
<path d="M165.736 142.685C162.27 142.77 158.875 143.682 155.834 145.346L119.609 144.434L119.676 161.691L156.417 160.759C159.574 162.19 163.028 162.845 166.49 162.667C175.163 162.339 182.017 157.599 181.807 152.083C181.598 146.567 174.401 142.363 165.734 142.687L165.736 142.685Z" fill="#FFB6B6"/>
<path d="M177.957 124.86C181.142 126.23 183.953 128.342 186.156 131.019L218.329 148.142L213.626 159.66L179.876 145.106C176.413 145.258 172.964 144.578 169.817 143.123C161.89 139.588 157.295 132.636 159.543 127.594C161.791 122.553 170.035 121.333 177.958 124.863L177.957 124.86Z" fill="#FFB6B6"/>
<path d="M106.12 142.622L122.739 144.1L157.013 144.462L153.67 162.637L107.959 162.863L106.12 142.622Z" fill="#D6D6E3"/>
<path d="M223.528 152.407L220.136 145.669L190.249 131.23L184.144 147.848L211.707 162.778L223.528 152.407Z" fill="#D6D6E3"/>
<path d="M0.00260172 162.584C-0.0371663 163.147 0.384339 163.636 0.946269 163.679H324.038C324.643 163.6 325.069 163.047 324.991 162.442C324.926 161.945 324.535 161.554 324.038 161.489H0.946265C0.384335 161.533 -0.0371663 162.022 0.00260172 162.584Z" fill="#CCCCCC"/>
</g>
<defs>
<clipPath id="clip0_2235_1038">
<rect width="325" height="164" fill="white"/>
</clipPath>
</defs>
</svg>
