<svg width="330" height="279" viewBox="0 0 330 279" fill="none" xmlns="http://www.w3.org/2000/svg">
<g clip-path="url(#clip0_2632_1253)">
<path d="M212.529 167.775H123.585C121.201 167.773 118.916 166.825 117.231 165.141C115.545 163.456 114.597 161.172 114.594 158.789V41.0794C114.597 38.697 115.545 36.4129 117.231 34.7282C118.916 33.0436 121.201 32.096 123.585 32.0933H212.529C214.912 32.096 217.198 33.0436 218.883 34.7282C220.569 36.4129 221.517 38.697 221.52 41.0794V158.789C221.517 161.172 220.569 163.456 218.883 165.141C217.198 166.825 214.912 167.773 212.529 167.775Z" fill="#E6E6E6"/>
<path d="M206.277 160.286H129.837C127.72 160.284 125.691 159.442 124.195 157.946C122.698 156.451 121.856 154.423 121.854 152.307V47.5614C121.856 45.4461 122.698 43.418 124.195 41.9223C125.691 40.4265 127.72 39.5851 129.837 39.5827H206.277C208.393 39.5851 210.422 40.4265 211.919 41.9223C213.415 43.418 214.257 45.4461 214.259 47.5614V152.307C214.257 154.423 213.415 156.451 211.919 157.946C210.422 159.442 208.393 160.284 206.277 160.286Z" fill="white"/>
<path d="M198.651 59.4886H137.462C137.2 59.4889 136.94 59.4376 136.698 59.3376C136.455 59.2375 136.235 59.0906 136.049 58.9054C135.864 58.7201 135.717 58.5001 135.616 58.258C135.516 58.0158 135.464 57.7562 135.464 57.494C135.464 57.2319 135.516 56.9723 135.616 56.7301C135.717 56.4879 135.864 56.2679 136.049 56.0827C136.235 55.8974 136.455 55.7506 136.698 55.6505C136.94 55.5505 137.2 55.4991 137.462 55.4995H198.651C198.913 55.4991 199.173 55.5505 199.416 55.6505C199.658 55.7506 199.878 55.8974 200.064 56.0827C200.25 56.2679 200.397 56.4879 200.497 56.7301C200.598 56.9723 200.65 57.2319 200.65 57.494C200.65 57.7562 200.598 58.0158 200.497 58.258C200.397 58.5001 200.25 58.7201 200.064 58.9054C199.878 59.0906 199.658 59.2375 199.416 59.3376C199.173 59.4376 198.913 59.4889 198.651 59.4886Z" fill="#E4E4E4"/>
<path d="M198.651 67.37H137.462C136.933 67.37 136.426 67.1598 136.051 66.7858C135.677 66.4117 135.467 65.9044 135.467 65.3754C135.467 64.8464 135.677 64.339 136.051 63.965C136.426 63.5909 136.933 63.3807 137.462 63.3807H198.651C199.181 63.3807 199.688 63.5909 200.062 63.965C200.437 64.339 200.647 64.8464 200.647 65.3754C200.647 65.9044 200.437 66.4117 200.062 66.7858C199.688 67.1598 199.181 67.37 198.651 67.37Z" fill="#E4E4E4"/>
<path d="M163.986 75.2513H137.462C136.933 75.2513 136.426 75.0412 136.051 74.6671C135.677 74.2931 135.467 73.7857 135.467 73.2567C135.467 72.7277 135.677 72.2204 136.051 71.8463C136.426 71.4722 136.933 71.2621 137.462 71.2621H163.986C164.516 71.2621 165.023 71.4722 165.398 71.8463C165.772 72.2204 165.982 72.7277 165.982 73.2567C165.982 73.7857 165.772 74.2931 165.398 74.6671C165.023 75.0412 164.516 75.2513 163.986 75.2513Z" fill="#E4E4E4"/>
<path d="M198.651 91.7579H137.462C137.2 91.7582 136.94 91.7069 136.698 91.6068C136.455 91.5068 136.235 91.3599 136.049 91.1747C135.864 90.9894 135.717 90.7694 135.616 90.5273C135.516 90.2851 135.464 90.0255 135.464 89.7633C135.464 89.5012 135.516 89.2416 135.616 88.9994C135.717 88.7572 135.864 88.5372 136.049 88.352C136.235 88.1667 136.455 88.0199 136.698 87.9198C136.94 87.8197 137.2 87.7684 137.462 87.7688H198.651C198.913 87.7684 199.173 87.8197 199.416 87.9198C199.658 88.0199 199.878 88.1667 200.064 88.352C200.25 88.5372 200.397 88.7572 200.497 88.9994C200.598 89.2416 200.65 89.5012 200.65 89.7633C200.65 90.0255 200.598 90.2851 200.497 90.5273C200.397 90.7694 200.25 90.9894 200.064 91.1747C199.878 91.3599 199.658 91.5068 199.416 91.6068C199.173 91.7069 198.913 91.7582 198.651 91.7579Z" fill="#E4E4E4"/>
<path d="M198.651 99.6393H137.462C136.933 99.6393 136.426 99.4291 136.051 99.0551C135.677 98.681 135.467 98.1736 135.467 97.6446C135.467 97.1156 135.677 96.6083 136.051 96.2342C136.426 95.8602 136.933 95.65 137.462 95.65H198.651C199.181 95.65 199.688 95.8602 200.062 96.2342C200.437 96.6083 200.647 97.1156 200.647 97.6446C200.647 98.1736 200.437 98.681 200.062 99.0551C199.688 99.4291 199.181 99.6393 198.651 99.6393Z" fill="#E4E4E4"/>
<path d="M163.986 107.52H137.463C136.934 107.52 136.427 107.309 136.053 106.935C135.68 106.561 135.47 106.054 135.47 105.526C135.47 104.997 135.68 104.49 136.053 104.116C136.427 103.742 136.934 103.532 137.463 103.531H163.986C164.516 103.531 165.023 103.741 165.398 104.115C165.772 104.49 165.982 104.997 165.982 105.526C165.982 106.055 165.772 106.562 165.398 106.936C165.023 107.31 164.516 107.52 163.986 107.52Z" fill="#E4E4E4"/>
<path d="M198.651 124.027H137.462C137.2 124.028 136.94 123.976 136.698 123.876C136.455 123.776 136.235 123.629 136.049 123.444C135.864 123.259 135.717 123.039 135.616 122.797C135.516 122.554 135.464 122.295 135.464 122.033C135.464 121.77 135.516 121.511 135.616 121.269C135.717 121.027 135.864 120.807 136.049 120.621C136.235 120.436 136.455 120.289 136.698 120.189C136.94 120.089 137.2 120.038 137.462 120.038H198.651C198.913 120.038 199.173 120.089 199.416 120.189C199.658 120.289 199.878 120.436 200.064 120.621C200.25 120.807 200.397 121.027 200.497 121.269C200.598 121.511 200.65 121.77 200.65 122.033C200.65 122.295 200.598 122.554 200.497 122.797C200.397 123.039 200.25 123.259 200.064 123.444C199.878 123.629 199.658 123.776 199.416 123.876C199.173 123.976 198.913 124.028 198.651 124.027Z" fill="#E4E4E4"/>
<path d="M198.651 131.908H137.462C136.933 131.908 136.426 131.698 136.051 131.324C135.677 130.95 135.467 130.443 135.467 129.914C135.467 129.385 135.677 128.877 136.051 128.503C136.426 128.129 136.933 127.919 137.462 127.919H198.651C199.181 127.919 199.688 128.129 200.062 128.503C200.437 128.877 200.647 129.385 200.647 129.914C200.647 130.443 200.437 130.95 200.062 131.324C199.688 131.698 199.181 131.908 198.651 131.908Z" fill="#E4E4E4"/>
<path d="M163.986 139.79H137.462C136.933 139.79 136.426 139.58 136.051 139.206C135.677 138.832 135.467 138.324 135.467 137.795C135.467 137.266 135.677 136.759 136.051 136.385C136.426 136.011 136.933 135.801 137.462 135.801H163.986C164.516 135.801 165.023 136.011 165.398 136.385C165.772 136.759 165.982 137.266 165.982 137.795C165.982 138.324 165.772 138.832 165.398 139.206C165.023 139.58 164.516 139.79 163.986 139.79Z" fill="#E4E4E4"/>
<path d="M150.432 99.3443L83.9532 42.512H39.2915V41.6749H84.2625L150.976 98.7081L150.432 99.3443Z" fill="#2F2E41"/>
<path d="M39.2918 48.7915C42.993 48.7915 45.9933 45.7927 45.9933 42.0935C45.9933 38.3943 42.993 35.3955 39.2918 35.3955C35.5907 35.3955 32.5903 38.3943 32.5903 42.0935C32.5903 45.7927 35.5907 48.7915 39.2918 48.7915Z" fill="#6C63FF"/>
<path d="M63.1844 64.6229H1.99558C1.73351 64.6229 1.47402 64.5713 1.2319 64.471C0.98979 64.3708 0.769796 64.2239 0.58449 64.0387C0.399184 63.8535 0.252193 63.6336 0.151906 63.3916C0.0516191 63.1496 0 62.8902 0 62.6283C0 62.3664 0.0516191 62.107 0.151906 61.865C0.252193 61.6231 0.399184 61.4032 0.58449 61.218C0.769796 61.0328 0.98979 60.8858 1.2319 60.7856C1.47402 60.6854 1.73351 60.6338 1.99558 60.6338H63.1844C63.4465 60.6338 63.706 60.6854 63.9481 60.7856C64.1902 60.8858 64.4102 61.0328 64.5955 61.218C64.7808 61.4032 64.9278 61.6231 65.0281 61.865C65.1284 62.107 65.18 62.3664 65.18 62.6283C65.18 62.8902 65.1284 63.1496 65.0281 63.3916C64.9278 63.6336 64.7808 63.8535 64.5955 64.0387C64.4102 64.2239 64.1902 64.3708 63.9481 64.471C63.706 64.5713 63.4465 64.6229 63.1844 64.6229Z" fill="#6C63FF"/>
<path d="M63.1845 72.5042H1.99567C1.46638 72.5042 0.958775 72.2941 0.584515 71.92C0.210254 71.5459 0 71.0386 0 70.5096C0 69.9806 0.210254 69.4732 0.584515 69.0992C0.958775 68.7251 1.46638 68.515 1.99567 68.515H63.1845C63.7138 68.515 64.2214 68.7251 64.5957 69.0992C64.9699 69.4732 65.1802 69.9806 65.1802 70.5096C65.1802 71.0386 64.9699 71.5459 64.5957 71.92C64.2214 72.2941 63.7138 72.5042 63.1845 72.5042Z" fill="#6C63FF"/>
<path d="M28.5196 80.3856H1.99567C1.46638 80.3856 0.958775 80.1754 0.584515 79.8013C0.210254 79.4273 0 78.9199 0 78.3909C0 77.8619 0.210254 77.3546 0.584515 76.9805C0.958775 76.6065 1.46638 76.3963 1.99567 76.3963H28.5196C29.0488 76.3963 29.5564 76.6065 29.9307 76.9805C30.305 77.3546 30.5152 77.8619 30.5152 78.3909C30.5152 78.9199 30.305 79.4273 29.9307 79.8013C29.5564 80.1754 29.0488 80.3856 28.5196 80.3856Z" fill="#6C63FF"/>
<path d="M168.057 63.3125L234.77 6.27924H279.741V7.11641H235.08L168.601 63.9487L168.057 63.3125Z" fill="#2F2E41"/>
<path d="M279.742 13.396C283.443 13.396 286.443 10.3972 286.443 6.69799C286.443 2.99879 283.443 0 279.742 0C276.04 0 273.04 2.99879 273.04 6.69799C273.04 10.3972 276.04 13.396 279.742 13.396Z" fill="#6C63FF"/>
<path d="M325.308 28.9925H264.119C263.857 28.9928 263.597 28.9415 263.354 28.8415C263.112 28.7414 262.892 28.5945 262.706 28.4093C262.52 28.2241 262.373 28.004 262.273 27.7619C262.172 27.5197 262.121 27.2601 262.121 26.9979C262.121 26.7358 262.172 26.4762 262.273 26.234C262.373 25.9918 262.52 25.7718 262.706 25.5866C262.892 25.4014 263.112 25.2545 263.354 25.1544C263.597 25.0544 263.857 25.003 264.119 25.0034H325.308C325.57 25.003 325.83 25.0544 326.072 25.1544C326.315 25.2545 326.535 25.4014 326.721 25.5866C326.906 25.7718 327.054 25.9918 327.154 26.234C327.255 26.4762 327.306 26.7358 327.306 26.9979C327.306 27.2601 327.255 27.5197 327.154 27.7619C327.054 28.004 326.906 28.2241 326.721 28.4093C326.535 28.5945 326.315 28.7414 326.072 28.8415C325.83 28.9415 325.57 28.9928 325.308 28.9925Z" fill="#6C63FF"/>
<path d="M325.308 36.8738H264.119C263.589 36.8738 263.082 36.6637 262.708 36.2896C262.333 35.9156 262.123 35.4082 262.123 34.8792C262.123 34.3502 262.333 33.8429 262.708 33.4688C263.082 33.0947 263.589 32.8846 264.119 32.8846H325.308C325.57 32.8846 325.829 32.9362 326.071 33.0364C326.313 33.1367 326.533 33.2836 326.719 33.4688C326.904 33.654 327.051 33.8739 327.151 34.1159C327.252 34.3579 327.303 34.6173 327.303 34.8792C327.303 35.1411 327.252 35.4005 327.151 35.6425C327.051 35.8845 326.904 36.1044 326.719 36.2896C326.533 36.4748 326.313 36.6218 326.071 36.722C325.829 36.8222 325.57 36.8738 325.308 36.8738Z" fill="#6C63FF"/>
<path d="M290.643 44.7552H264.119C263.589 44.7552 263.082 44.545 262.708 44.171C262.333 43.7969 262.123 43.2896 262.123 42.7606C262.123 42.2315 262.333 41.7242 262.708 41.3501C263.082 40.9761 263.589 40.7659 264.119 40.7659H290.643C291.172 40.7659 291.679 40.9761 292.054 41.3501C292.428 41.7242 292.638 42.2315 292.638 42.7606C292.638 43.2896 292.428 43.7969 292.054 44.171C291.679 44.545 291.172 44.7552 290.643 44.7552Z" fill="#6C63FF"/>
<path d="M277.335 189.149C276.99 188.773 276.732 188.327 276.578 187.842C276.425 187.356 276.379 186.842 276.446 186.337C276.512 185.832 276.688 185.348 276.962 184.918C277.236 184.488 277.601 184.124 278.031 183.851L275.173 171.801L281.221 174.009L283.007 185.113C283.419 185.866 283.54 186.743 283.348 187.579C283.156 188.415 282.664 189.151 281.965 189.649C281.265 190.146 280.408 190.37 279.555 190.278C278.702 190.186 277.912 189.784 277.335 189.149Z" fill="#9E616A"/>
<path d="M262.793 138.655L265.22 144.892C265.22 144.892 264.18 151.13 265.913 152.516C267.647 153.902 266.954 153.902 266.954 154.942C267.013 155.688 267.229 156.412 267.588 157.069C267.946 157.726 268.439 158.3 269.034 158.754C270.421 159.793 276.662 180.932 276.662 180.932H282.902C282.701 179.321 282.701 177.691 282.902 176.08C283.249 173.655 281.862 167.417 281.169 166.377C280.475 165.338 281.169 163.952 281.169 161.872C281.169 159.793 279.782 158.754 279.782 155.288C279.782 151.823 275.621 124.793 275.968 121.675C276.315 118.556 272.501 115.783 272.501 115.783H269.034L262.793 138.655Z" fill="#E6E7E8"/>
<path d="M248.108 151.885L242.34 177.615L279.305 175.316L269.253 150.047L248.108 151.885Z" fill="#9E616A"/>
<path d="M328.684 248.588C327.583 252.565 325.865 256.344 323.592 259.787C318.513 267.463 311.244 273.333 303.254 278.032C302.701 278.361 302.139 278.683 301.577 279H295.973L295.777 278.553V278.549L295.55 278.032L295.521 277.971L295.509 278.032L295.285 279H292.534C292.306 278.679 292.082 278.357 291.862 278.032C291.541 277.556 291.231 277.076 290.938 276.588C290.421 275.734 289.959 274.848 289.554 273.936C289.506 273.834 289.465 273.732 289.424 273.63L289.607 273.431L288.846 270.104L290.377 269.851L288.7 264.681C288.761 264.49 288.83 264.299 288.903 264.107C289.843 261.728 291.61 259.95 293.706 258.457C295.863 256.915 298.374 255.679 300.682 254.393C301.765 253.787 302.831 253.149 303.869 252.473V252.469C305.196 251.611 306.483 250.693 307.731 249.715C307.753 249.702 307.773 249.687 307.792 249.67C307.809 249.658 307.826 249.645 307.841 249.63C313.437 245.261 318.172 239.891 321.805 233.793L321.807 233.793L321.808 233.792L321.809 233.791L321.809 233.789C321.932 233.594 322.045 233.399 322.159 233.2V233.195C323.647 230.637 324.928 227.964 325.989 225.202V225.198C326.071 224.995 326.144 224.791 326.221 224.588C326.327 224.767 326.429 224.946 326.527 225.125L326.528 225.125L326.529 225.126L326.53 225.127L326.531 225.129C330.479 232.187 330.853 240.689 328.684 248.588Z" fill="#F0F0F0"/>
<path d="M326.531 225.129C326.57 228.895 326.178 232.654 325.362 236.332C324.996 238.015 324.539 239.677 323.995 241.311C322.938 244.508 321.556 247.588 319.872 250.504C319.778 250.663 319.689 250.818 319.591 250.972V250.976C318.871 252.189 318.09 253.365 317.251 254.499C315.981 256.305 314.412 257.882 312.611 259.161C311.14 260.132 309.477 260.775 307.735 261.044C307.41 261.105 307.076 261.15 306.738 261.191C305.391 261.349 303.999 261.41 302.664 261.695C301.988 261.829 301.329 262.04 300.702 262.326C298.553 263.322 297.344 265.409 296.815 267.638C296.722 268.029 296.648 268.424 296.591 268.818C296.148 271.849 296.636 274.997 296.384 278.032C296.355 278.353 296.319 278.679 296.274 279H295.973L295.777 278.553V278.549C295.798 278.378 295.814 278.207 295.83 278.032C295.928 276.541 295.94 275.046 295.867 273.553C295.851 272.882 295.838 272.207 295.847 271.531C295.855 270.99 295.875 270.449 295.916 269.912V269.908C295.944 269.575 295.977 269.245 296.022 268.916C296.151 267.907 296.399 266.917 296.762 265.966C297.116 264.987 297.674 264.094 298.398 263.345C299.121 262.596 299.996 262.009 300.963 261.622C301.553 261.401 302.162 261.23 302.782 261.113C304.145 260.853 305.554 260.788 306.925 260.617C307.072 260.601 307.218 260.581 307.361 260.556C307.544 260.528 307.723 260.495 307.902 260.463C309.697 260.144 311.392 259.41 312.851 258.319C314.586 256.946 316.094 255.31 317.32 253.47C317.988 252.514 318.622 251.538 319.213 250.533C319.213 250.532 319.213 250.532 319.213 250.531C319.213 250.531 319.213 250.53 319.214 250.53C319.214 250.53 319.215 250.529 319.215 250.529C319.216 250.529 319.216 250.529 319.217 250.529C319.245 250.48 319.274 250.435 319.302 250.386L319.306 250.378C321.838 246.055 323.685 241.366 324.785 236.478C324.821 236.299 324.862 236.12 324.903 235.941C325.658 232.412 326.022 228.811 325.989 225.202V225.198C325.989 225.027 325.985 224.86 325.981 224.689C325.973 224.34 326.514 224.262 326.522 224.612C326.526 224.783 326.531 224.954 326.526 225.125C326.527 225.125 326.527 225.125 326.528 225.125C326.528 225.125 326.529 225.126 326.529 225.126C326.53 225.126 326.53 225.127 326.53 225.127C326.53 225.128 326.531 225.128 326.531 225.129Z" fill="white"/>
<path d="M319.359 250.862C320.909 251.649 322.69 251.86 324.382 251.456C326.074 251.053 327.567 250.061 328.595 248.659C328.802 248.374 328.37 248.039 328.162 248.324C327.207 249.632 325.816 250.555 324.24 250.928C322.664 251.301 321.006 251.098 319.566 250.356C319.253 250.195 319.047 250.702 319.359 250.862Z" fill="white"/>
<path d="M307.954 260.625C306.821 257.256 306.999 253.584 308.455 250.341C308.599 250.02 308.093 249.813 307.948 250.134C306.441 253.511 306.262 257.333 307.449 260.836C307.563 261.169 308.067 260.957 307.954 260.625Z" fill="white"/>
<path d="M325.06 235.991C324.396 235.812 323.787 235.47 323.289 234.997C322.79 234.524 322.416 233.935 322.201 233.282C322.092 232.947 321.588 233.16 321.697 233.493C321.937 234.213 322.351 234.864 322.901 235.387C323.451 235.911 324.121 236.292 324.852 236.497C324.919 236.522 324.994 236.521 325.06 236.493C325.126 236.465 325.18 236.413 325.209 236.348C325.236 236.281 325.236 236.206 325.208 236.139C325.18 236.072 325.127 236.019 325.06 235.991Z" fill="white"/>
<path d="M303.869 252.469V252.473C303.742 255.378 303.379 258.268 302.782 261.113V261.118C302.749 261.313 302.705 261.504 302.664 261.695C301.682 266.096 300.304 270.4 298.549 274.554C298.065 275.725 297.557 276.885 297.027 278.032C296.88 278.357 296.73 278.679 296.575 279H295.973L295.777 278.553V278.549L295.55 278.032L295.521 277.971L295.509 278.032L295.285 279H289.465L288.333 278.032L286.685 276.62L288.989 274.106L289.367 273.691L289.424 273.63L289.607 273.431L288.846 270.104L290.377 269.851L288.7 264.681L287.906 262.236L287.707 261.622L286.547 258.046L283.046 258.701L282.477 256.708C283.526 254.277 284.399 251.775 285.09 249.219C285.094 249.199 285.102 249.182 285.106 249.162C286.955 242.278 287.51 235.111 286.742 228.025V228.021C286.718 227.793 286.689 227.561 286.656 227.338V227.33C286.308 224.393 285.72 221.49 284.898 218.649C284.841 218.433 284.776 218.222 284.715 218.01C284.902 218.091 285.085 218.169 285.273 218.25L285.277 218.254H285.285C285.582 218.384 285.879 218.523 286.168 218.669C293.112 222.041 298.219 228.371 301.121 235.669C301.13 235.689 301.138 235.705 301.146 235.726C302.66 239.551 303.562 243.591 303.82 247.698C303.917 249.286 303.934 250.879 303.869 252.469Z" fill="#F0F0F0"/>
<path d="M293.307 279H292.664C292.46 278.671 292.24 278.349 292.02 278.032C291.67 277.54 291.31 277.058 290.938 276.588C290.616 276.181 290.295 275.778 289.973 275.376C289.64 274.957 289.31 274.538 288.988 274.106L289.367 273.691C289.428 273.773 289.489 273.854 289.554 273.935C290.596 275.306 291.723 276.624 292.688 278.032C292.904 278.349 293.111 278.671 293.307 279Z" fill="white"/>
<path d="M284.58 218.237C284.686 218.371 284.796 218.51 284.897 218.648C285.691 219.677 286.441 220.739 287.148 221.833C288.407 223.764 289.525 225.783 290.494 227.874C290.571 228.037 290.648 228.204 290.722 228.37C292.794 232.94 294.145 237.803 294.727 242.787C294.735 242.836 294.739 242.881 294.743 242.929C294.877 244.093 294.964 245.26 295.003 246.432C295.133 248.638 294.915 250.851 294.356 252.989C294.275 253.27 294.185 253.547 294.088 253.815C293.843 254.473 293.536 255.106 293.172 255.707C292.91 256.145 292.619 256.565 292.301 256.964C292.11 257.208 291.91 257.448 291.698 257.68C291.576 257.814 291.45 257.948 291.324 258.082C291.218 258.184 291.116 258.29 291.011 258.392C289.912 259.457 288.699 260.446 287.706 261.621L287.905 262.236C288.862 261.023 290.095 260.019 291.206 258.961C291.904 258.305 292.538 257.586 293.103 256.813C293.176 256.707 293.253 256.602 293.322 256.492C293.7 255.941 294.025 255.357 294.295 254.747C294.434 254.442 294.56 254.128 294.674 253.803C295.339 251.7 295.641 249.499 295.569 247.294C295.556 245.882 295.472 244.471 295.317 243.068C295.3 242.885 295.28 242.706 295.256 242.523C294.843 239.181 294.09 235.891 293.009 232.703C291.641 228.658 289.758 224.805 287.409 221.239C286.737 220.218 286.025 219.222 285.272 218.249C285.174 218.115 285.072 217.985 284.967 217.851C284.751 217.574 284.364 217.961 284.58 218.237Z" fill="white"/>
<path d="M295.062 243.119C296.774 242.815 298.323 241.911 299.431 240.571C300.539 239.231 301.134 237.54 301.11 235.802C301.108 235.731 301.079 235.664 301.029 235.614C300.978 235.564 300.91 235.535 300.839 235.535C300.768 235.534 300.7 235.56 300.648 235.609C300.597 235.658 300.566 235.724 300.563 235.795C300.588 237.414 300.033 238.989 298.999 240.235C297.965 241.481 296.519 242.316 294.923 242.59C294.576 242.65 294.717 243.179 295.062 243.119Z" fill="white"/>
<path d="M291.837 257.777C288.903 255.769 286.834 252.73 286.042 249.265C285.964 248.922 285.435 249.061 285.513 249.404C286.343 253.008 288.503 256.166 291.561 258.249C291.853 258.447 292.127 257.974 291.837 257.777Z" fill="white"/>
<path d="M290.656 227.815C290.018 228.071 289.326 228.164 288.643 228.087C287.96 228.01 287.306 227.764 286.742 227.372C286.453 227.17 286.179 227.644 286.466 227.844C287.092 228.274 287.813 228.545 288.568 228.632C289.323 228.719 290.087 228.62 290.795 228.344C290.863 228.323 290.922 228.278 290.958 228.216C290.994 228.154 291.006 228.08 290.99 228.01C290.971 227.94 290.925 227.88 290.863 227.844C290.8 227.807 290.726 227.797 290.656 227.815Z" fill="white"/>
<path d="M254.264 270.636H250.111L248.136 254.628L254.264 254.628L254.264 270.636Z" fill="#9E616A"/>
<path d="M256.498 278.516H253.551L253.025 275.736L251.678 278.516H243.864C243.489 278.516 243.124 278.396 242.823 278.174C242.521 277.953 242.298 277.64 242.187 277.283C242.075 276.925 242.081 276.542 242.203 276.188C242.325 275.834 242.557 275.528 242.865 275.315L249.106 271.008V268.197L255.67 268.588L256.498 278.516Z" fill="#2F2E41"/>
<path d="M293.509 268.571L289.451 269.451L284.125 254.225L290.114 252.927L293.509 268.571Z" fill="#9E616A"/>
<path d="M297.364 275.799L294.484 276.423L293.38 273.817L292.654 276.82L285.017 278.476C284.651 278.555 284.269 278.516 283.927 278.363C283.585 278.21 283.301 277.952 283.116 277.626C282.931 277.3 282.856 276.924 282.9 276.552C282.944 276.181 283.106 275.833 283.362 275.56L288.547 270.027L287.951 267.281L294.449 266.272L297.364 275.799Z" fill="#2F2E41"/>
<path d="M322.753 278.516C322.753 278.58 322.741 278.643 322.717 278.701C322.693 278.76 322.657 278.814 322.612 278.859C322.567 278.904 322.513 278.939 322.455 278.964C322.396 278.988 322.333 279 322.269 279H208.19C208.061 279 207.938 278.949 207.847 278.858C207.757 278.767 207.706 278.644 207.706 278.516C207.706 278.388 207.757 278.264 207.847 278.174C207.938 278.083 208.061 278.032 208.19 278.032H322.269C322.333 278.032 322.396 278.044 322.455 278.068C322.513 278.093 322.567 278.128 322.612 278.173C322.657 278.218 322.693 278.272 322.717 278.33C322.741 278.389 322.753 278.452 322.753 278.516Z" fill="#CCCCCC"/>
<path d="M241.396 199.13C244.31 215.137 245.039 222.048 245.039 222.048C245.039 222.048 242.853 224.595 244.31 226.051C245.767 227.507 244.31 230.416 244.31 230.416L247.587 265.705L250.224 265.278L256.577 264.257L258.869 263.887L257.412 230.782C257.412 230.782 258.869 227.869 258.14 227.141C257.412 226.413 258.869 222.048 258.869 222.048L260.688 187.487L271.974 225.323C271.974 225.323 270.88 226.779 271.974 227.869C273.065 228.96 275.247 234.419 275.247 234.419L281.958 257.89L282.528 259.884L286.028 259.229L289.838 258.513L290.538 258.383L291.783 258.147L292.585 257.996L292.858 257.947L294.176 257.699L293.777 255.93L293.57 254.998L287.892 229.793L287.762 229.212L287.624 228.597C287.624 228.597 288.352 226.779 287.261 225.685C286.942 225.351 286.709 224.945 286.582 224.502C286.455 224.058 286.438 223.59 286.533 223.138C286.569 223.1 286.601 223.06 286.631 223.016C286.759 222.84 286.848 222.637 286.891 222.422C286.989 221.967 286.903 221.328 286.167 220.592C285.959 220.372 285.785 220.122 285.65 219.851C284.543 217.757 283.985 213.318 283.985 213.318C283.985 213.318 283 178.168 279.777 172.798C279.606 172.517 276.184 167.129 276.005 167.019C272.366 164.839 242.34 167.85 242.34 167.85C242.34 167.85 240.623 172.46 240.546 172.94C240.126 175.637 238.926 185.551 241.396 199.13Z" fill="#2F2E41"/>
<path d="M241.567 189.104C241.912 188.729 242.17 188.282 242.324 187.797C242.478 187.311 242.523 186.797 242.457 186.292C242.391 185.787 242.214 185.303 241.94 184.873C241.667 184.444 241.302 184.079 240.872 183.806L243.729 171.756L237.682 173.964L235.895 185.068C235.484 185.821 235.362 186.698 235.554 187.534C235.746 188.37 236.239 189.106 236.938 189.604C237.637 190.101 238.494 190.325 239.347 190.233C240.201 190.141 240.99 189.739 241.567 189.104Z" fill="#9E616A"/>
<path d="M246.402 115.738C246.402 115.738 249.397 111.278 255.291 105.387C258.411 104.348 263.818 104.954 265.692 105.387C274.36 116.823 274.906 116.063 277.162 122.453C277.747 124.109 278.04 125.701 277.78 127.001C276.739 132.199 278.407 158.462 278.753 159.848C279.1 161.235 281.527 162.967 279.1 162.967C276.673 162.967 239.921 161.581 240.615 160.541C241.308 159.502 246.402 115.738 246.402 115.738Z" fill="#E6E7E8"/>
<path d="M249.869 115.739H246.401C246.401 115.739 242.588 118.511 242.934 121.63C243.281 124.748 239.12 151.778 239.12 155.243C239.12 158.709 237.734 159.748 237.734 161.828C237.734 163.907 238.427 165.293 237.734 166.333C237.04 167.372 235.653 173.61 236 176.035C236.202 177.646 236.202 179.276 236 180.887H242.241C242.241 180.887 248.482 159.748 249.869 158.709C250.464 158.255 250.956 157.681 251.315 157.024C251.673 156.367 251.889 155.643 251.949 154.897C251.949 153.857 251.256 153.857 252.989 152.471C254.723 151.085 253.683 144.847 253.683 144.847L256.11 138.61L249.869 115.739Z" fill="#E6E7E8"/>
<path d="M256.99 100.952C262.535 100.952 267.03 96.4595 267.03 90.9176C267.03 85.3758 262.535 80.8832 256.99 80.8832C251.446 80.8832 246.951 85.3758 246.951 90.9176C246.951 96.4595 251.446 100.952 256.99 100.952Z" fill="#9E616A"/>
<path d="M249.959 109.723L249.016 105.597C248.707 104.216 248.677 102.788 248.928 101.395C249.18 100.003 249.708 98.6747 250.48 97.4893C251.191 96.3717 251.586 95.0835 251.626 93.7602C251.666 92.4368 251.349 91.1272 250.707 89.9689C249.615 87.9813 247.73 86.7946 245.665 86.7946H245.415V86.544C245.415 82.9459 248.22 80.4063 250.829 80.2607C250.923 79.512 251.454 78.8408 252.378 78.3079C254.587 77.0353 258.857 76.7593 262.083 78.4554C262.143 77.907 262.35 77.3849 262.683 76.9446C263.015 76.5042 263.46 76.1619 263.972 75.954C264.502 75.7698 265.073 75.737 265.62 75.8593C265.667 74.9573 266.04 74.1029 266.67 73.4545C267.56 72.5918 268.989 72.2639 270.59 72.5531C272.789 72.952 274.957 74.3521 276.693 76.496C278.233 78.3967 279.302 80.6368 280.336 82.803C281.352 84.9335 282.403 87.1364 283.927 89.0016C285.596 91.045 287.664 92.369 289.751 92.7297C292.184 93.1505 294.681 92.1493 295.824 90.2955L296.051 89.9275L296.257 90.3073C297.541 92.665 297.016 95.9049 295.008 98.0107C293.208 99.8994 290.382 100.862 287.453 100.582C284.972 100.346 282.471 99.2928 280.017 97.4511C277.579 95.6218 276.072 93.5998 275.537 91.4409C275.387 90.7729 275.279 90.0962 275.215 89.4147C275.049 87.9872 274.892 86.6387 274.013 85.6463C273.224 84.7539 272.002 84.3673 270.918 84.0751L270.706 84.0181C270.667 84.4202 270.541 84.8089 270.336 85.1573C270.132 85.5056 269.853 85.8052 269.521 86.0351C269.322 86.155 269.103 86.2393 268.874 86.2842C270.13 91.3381 269.614 95.2076 267.337 97.7873C263.495 102.142 256.11 101.247 255.798 101.207L255.59 101.18L255.579 100.971C255.551 100.409 255.483 99.8505 255.374 99.299C254.316 101.846 250.759 108.581 250.283 109.26L249.959 109.723Z" fill="#2F2E41"/>
</g>
<defs>
<clipPath id="clip0_2632_1253">
<rect width="330" height="279" fill="white"/>
</clipPath>
</defs>
</svg>
