<svg width="330" height="276" viewBox="0 0 330 276" fill="none" xmlns="http://www.w3.org/2000/svg">
<g clip-path="url(#clip0_2632_1880)">
<path d="M155.002 276C226.98 276 285.329 273.015 285.329 269.333C285.329 265.651 226.98 262.667 155.002 262.667C83.0243 262.667 24.6748 265.651 24.6748 269.333C24.6748 273.015 83.0243 276 155.002 276Z" fill="#F2F2F2"/>
<path d="M231.145 64.055H229.664V23.4824C229.664 17.2545 227.191 11.2816 222.789 6.87784C218.386 2.47404 212.415 6.87607e-06 206.19 0H120.26C114.034 -1.17875e-05 108.063 2.474 103.661 6.87778C99.2589 11.2816 96.7857 17.2544 96.7856 23.4823V246.067C96.7856 252.295 99.2588 258.268 103.661 262.672C108.063 267.075 114.034 269.549 120.26 269.549H206.19C212.415 269.549 218.386 267.075 222.788 262.672C227.191 258.268 229.664 252.295 229.664 246.067V92.9353H231.145L231.145 64.055Z" fill="#3F3D56"/>
<path d="M224.667 23.6462V245.903C224.667 250.555 222.82 255.015 219.533 258.304C216.245 261.593 211.786 263.441 207.136 263.441H120.794C116.145 263.441 111.686 261.593 108.398 258.304C105.11 255.015 103.263 250.555 103.263 245.903V23.6462C103.263 18.9951 105.11 14.5345 108.398 11.2456C111.686 7.95678 116.145 6.1091 120.794 6.10901H131.269C130.754 7.37419 130.558 8.74651 130.698 10.1053C130.838 11.464 131.309 12.7675 132.071 13.9012C132.833 15.0348 133.861 15.9638 135.066 16.6065C136.271 17.2492 137.616 17.5859 138.981 17.5869H188.209C189.575 17.5859 190.919 17.2492 192.124 16.6065C193.329 15.9638 194.357 15.0348 195.119 13.9011C195.881 12.7675 196.352 11.464 196.492 10.1052C196.632 8.74651 196.436 7.37419 195.921 6.10901H207.136C211.786 6.1091 216.245 7.95678 219.533 11.2456C222.82 14.5345 224.667 18.9951 224.667 23.6462Z" fill="white"/>
<path d="M196.852 119.483C196.278 119.783 195.694 120.066 195.101 120.334C194.56 120.579 194.011 120.808 193.453 121.023C193.25 121.101 193.042 121.179 192.835 121.257C191.196 121.851 189.512 122.316 187.8 122.646C186.952 122.812 186.093 122.943 185.223 123.038C184.504 123.12 183.779 123.178 183.046 123.212C182.524 123.238 182.002 123.249 181.476 123.249C179.394 123.25 177.316 123.055 175.271 122.668C174.737 122.571 174.215 122.457 173.693 122.331C171.168 121.725 168.723 120.823 166.41 119.642C166.203 119.538 165.996 119.427 165.788 119.32C165.481 119.157 165.181 118.986 164.881 118.808C165.026 118.608 165.181 118.412 165.34 118.22C167.073 116.072 169.238 114.313 171.696 113.059C174.153 111.804 176.847 111.082 179.602 110.939C182.357 110.795 185.112 111.234 187.686 112.227C190.26 113.22 192.596 114.745 194.542 116.701C195.217 117.379 195.843 118.104 196.415 118.871C196.567 119.071 196.711 119.275 196.852 119.483Z" fill="#6C63FF"/>
<path d="M182.215 103.213C191.194 103.213 198.472 95.9319 198.472 86.9501C198.472 77.9683 191.194 70.6871 182.215 70.6871C173.236 70.6871 165.958 77.9683 165.958 86.9501C165.958 95.9319 173.236 103.213 182.215 103.213Z" fill="#2F2E41"/>
<path d="M186.539 103.236C192.403 100.03 194.558 92.6751 191.352 86.8094C188.147 80.9437 180.795 78.788 174.931 81.9944C169.067 85.2009 166.912 92.5554 170.118 98.4211C173.323 104.287 180.675 106.443 186.539 103.236Z" fill="#A0616A"/>
<path d="M193.449 85.0018C190.684 86.9082 187.402 87.9228 184.044 87.9094C185.242 88.7403 186.606 89.3015 188.041 89.5544C183.577 90.5125 178.962 90.5384 174.487 89.6306C173.492 89.471 172.532 89.1413 171.649 88.6557C171.209 88.4099 170.826 88.0743 170.524 87.6706C170.222 87.2668 170.009 86.8041 169.898 86.3125C169.6 84.613 170.924 83.069 172.3 82.0284C174.406 80.4595 176.835 79.3786 179.41 78.8638C181.985 78.349 184.643 78.4133 187.19 79.0519C188.853 79.482 190.52 80.2087 191.6 81.5449C192.68 82.8811 193 84.9412 191.971 86.3171L193.449 85.0018Z" fill="#2F2E41"/>
<path d="M181.476 56.582C174.209 56.581 167.141 58.9568 161.349 63.3474C155.557 67.738 151.359 73.9026 149.394 80.9016C147.43 87.9006 147.807 95.3502 150.468 102.115C153.129 108.88 157.928 114.588 164.134 118.371L164.349 118.497C164.526 118.605 164.704 118.708 164.882 118.808C165.182 118.986 165.481 119.157 165.789 119.32C165.996 119.427 166.203 119.538 166.411 119.642C168.724 120.823 171.168 121.725 173.693 122.331C174.216 122.457 174.738 122.571 175.271 122.668C177.317 123.055 179.394 123.25 181.476 123.249C182.002 123.249 182.524 123.238 183.046 123.212C183.779 123.179 184.505 123.121 185.223 123.038C186.093 122.942 186.952 122.811 187.8 122.646C189.512 122.316 191.196 121.851 192.835 121.257C193.043 121.179 193.25 121.101 193.454 121.023C194.013 120.808 194.562 120.579 195.101 120.334C195.694 120.068 196.277 119.784 196.853 119.483C202.616 116.463 207.38 111.835 210.566 106.16C210.581 106.131 210.6 106.101 210.615 106.071C212.315 103.02 213.52 99.7185 214.188 96.2897C215.124 91.4628 214.982 86.4885 213.772 81.7228C212.562 76.9572 210.313 72.5181 207.187 68.7236C204.061 64.929 200.135 61.8728 195.69 59.7738C191.245 57.6747 186.391 56.5848 181.476 56.582ZM210.007 105.638C209.978 105.69 209.952 105.742 209.922 105.79C206.8 111.381 202.103 115.93 196.416 118.871C195.849 119.168 195.273 119.445 194.687 119.705C194.202 119.923 193.705 120.131 193.206 120.323C192.994 120.405 192.78 120.486 192.565 120.56C191.149 121.078 189.697 121.494 188.222 121.805C187.128 122.038 186.021 122.212 184.908 122.327C184.223 122.401 183.527 122.453 182.827 122.479C182.379 122.497 181.928 122.508 181.476 122.508C179.461 122.511 177.451 122.324 175.471 121.949C174.266 121.727 173.076 121.435 171.905 121.075C170.122 120.524 168.389 119.821 166.725 118.975C166.533 118.875 166.34 118.775 166.151 118.671C165.881 118.527 165.607 118.379 165.341 118.22C165.141 118.108 164.941 117.99 164.745 117.871C164.63 117.805 164.515 117.734 164.4 117.664C158.959 114.321 154.619 109.455 151.918 103.667C149.217 97.8794 148.274 91.426 149.206 85.1072C150.138 78.7884 152.904 72.8824 157.161 68.1219C161.418 63.3614 166.979 59.9559 173.153 58.3279C179.327 56.6998 185.843 56.9209 191.893 58.9637C197.942 61.0065 203.259 64.7811 207.184 69.8192C211.109 74.8573 213.468 80.9372 213.97 87.3046C214.472 93.6721 213.094 100.047 210.007 105.638Z" fill="#3F3D56"/>
<path d="M173.982 70.9116C173.807 69.0716 171.554 67.9388 169.792 68.4946C168.03 69.0504 166.873 70.8253 166.523 72.6402C166.355 73.4045 166.339 74.1946 166.476 74.965C166.614 75.7355 166.902 76.4712 167.325 77.13C168.215 78.4123 169.852 79.2126 171.379 78.8871C173.122 78.5155 174.329 76.8132 174.675 75.0644C175.02 73.3157 174.677 71.5128 174.334 69.7635L173.982 70.9116Z" fill="#2F2E41"/>
<path d="M198.782 73.5401C198.607 71.7001 196.354 70.5673 194.592 71.1231C192.829 71.6789 191.672 73.4539 191.323 75.2687C191.154 76.0331 191.139 76.8231 191.276 77.5936C191.414 78.364 191.702 79.0997 192.124 79.7585C193.015 81.0409 194.652 81.8412 196.179 81.5156C197.921 81.144 199.129 79.4417 199.474 77.693C199.82 75.9443 199.477 74.1414 199.134 72.3921L198.782 73.5401Z" fill="#2F2E41"/>
<path d="M123.879 103.237C123.648 103.237 123.42 103.189 123.21 103.095C122.999 103.002 122.81 102.866 122.655 102.695L104.282 82.6455C104.074 82.4185 103.82 82.2372 103.538 82.1131C103.256 81.9889 102.952 81.9247 102.643 81.9243H5.55715C4.08381 81.9227 2.67129 81.3364 1.62948 80.2943C0.587668 79.2521 0.00165419 77.8391 0 76.3653V41.3419C0.00165321 39.868 0.587668 38.455 1.62948 37.4129C2.67129 36.3707 4.08381 35.7845 5.55715 35.7828H131.34C132.813 35.7845 134.226 36.3707 135.267 37.4129C136.309 38.455 136.895 39.868 136.897 41.3419V76.3653C136.895 77.8391 136.309 79.2521 135.267 80.2943C134.226 81.3365 132.813 81.9227 131.34 81.9243H127.774C127.184 81.925 126.619 82.1595 126.202 82.5765C125.786 82.9934 125.551 83.5587 125.55 84.1484V101.568C125.552 101.905 125.451 102.233 125.261 102.511C125.071 102.788 124.802 103.002 124.488 103.122C124.294 103.198 124.087 103.237 123.879 103.237Z" fill="white"/>
<path d="M123.879 103.237C123.648 103.237 123.42 103.189 123.21 103.095C122.999 103.002 122.81 102.866 122.655 102.695L104.282 82.6455C104.074 82.4185 103.82 82.2372 103.538 82.1131C103.256 81.9889 102.952 81.9247 102.643 81.9243H5.55715C4.08381 81.9227 2.67129 81.3364 1.62948 80.2943C0.587668 79.2521 0.00165419 77.8391 0 76.3653V41.3419C0.00165321 39.868 0.587668 38.455 1.62948 37.4129C2.67129 36.3707 4.08381 35.7845 5.55715 35.7828H131.34C132.813 35.7845 134.226 36.3707 135.267 37.4129C136.309 38.455 136.895 39.868 136.897 41.3419V76.3653C136.895 77.8391 136.309 79.2521 135.267 80.2943C134.226 81.3365 132.813 81.9227 131.34 81.9243H127.774C127.184 81.925 126.619 82.1595 126.202 82.5765C125.786 82.9934 125.551 83.5587 125.55 84.1484V101.568C125.552 101.905 125.451 102.233 125.261 102.511C125.071 102.788 124.802 103.002 124.488 103.122C124.294 103.198 124.087 103.237 123.879 103.237ZM5.55715 36.5236C4.28014 36.525 3.05584 37.0331 2.15285 37.9364C1.24986 38.8397 0.741937 40.0644 0.740496 41.3419V76.3653C0.741939 77.6427 1.24987 78.8674 2.15286 79.7707C3.05584 80.674 4.28014 81.1821 5.55715 81.1836H102.643C103.054 81.184 103.46 81.2697 103.836 81.4352C104.212 81.6007 104.55 81.8423 104.828 82.145L123.2 102.194C123.327 102.332 123.491 102.428 123.673 102.471C123.855 102.513 124.045 102.5 124.219 102.432C124.393 102.364 124.543 102.246 124.648 102.091C124.754 101.937 124.81 101.755 124.81 101.568V84.1484C124.811 83.3623 125.123 82.6087 125.679 82.0529C126.235 81.4971 126.988 81.1845 127.774 81.1836H131.34C132.617 81.1821 133.841 80.674 134.744 79.7707C135.647 78.8674 136.155 77.6427 136.156 76.3653V41.3419C136.155 40.0644 135.647 38.8397 134.744 37.9364C133.841 37.0331 132.617 36.525 131.34 36.5236H5.55715Z" fill="#3F3D56"/>
<path d="M13.6313 51.2327C16.3169 51.2327 18.494 49.0548 18.494 46.3683C18.494 43.6818 16.3169 41.5039 13.6313 41.5039C10.9457 41.5039 8.76855 43.6818 8.76855 46.3683C8.76855 49.0548 10.9457 51.2327 13.6313 51.2327Z" fill="#6C63FF"/>
<path d="M125.667 73.2845H11.2303C10.8895 73.2849 10.5519 73.2181 10.2369 73.0879C9.92191 72.9577 9.63565 72.7667 9.39449 72.5257C9.15334 72.2848 8.96203 71.9986 8.8315 71.6837C8.70097 71.3687 8.63379 71.0311 8.63379 70.6902C8.63379 70.3492 8.70097 70.0116 8.8315 69.6966C8.96203 69.3817 9.15334 69.0955 9.39449 68.8546C9.63565 68.6136 9.92191 68.4226 10.2369 68.2924C10.5519 68.1622 10.8895 68.0954 11.2303 68.0958H125.667C126.354 68.0966 127.013 68.3703 127.498 68.8568C127.984 69.3432 128.257 70.0026 128.257 70.6902C128.257 71.3777 127.984 72.0371 127.498 72.5235C127.013 73.01 126.354 73.2837 125.667 73.2845Z" fill="#E6E6E6"/>
<path d="M88.3856 62.2586H11.2303C10.8895 62.259 10.5519 62.1922 10.2369 62.062C9.92191 61.9318 9.63565 61.7408 9.39449 61.4999C9.15334 61.2589 8.96203 60.9728 8.8315 60.6578C8.70097 60.3428 8.63379 60.0052 8.63379 59.6643C8.63379 59.3233 8.70097 58.9857 8.8315 58.6708C8.96203 58.3558 9.15334 58.0697 9.39449 57.8287C9.63565 57.5878 9.92191 57.3967 10.2369 57.2665C10.5519 57.1364 10.8895 57.0695 11.2303 57.0699H88.3856C89.0734 57.0699 89.7331 57.3433 90.2194 57.8298C90.7058 58.3163 90.979 58.9762 90.979 59.6643C90.979 60.3523 90.7058 61.0122 90.2194 61.4988C89.7331 61.9853 89.0734 62.2586 88.3856 62.2586Z" fill="#E6E6E6"/>
<path d="M205.512 222.012C205.198 221.891 204.928 221.678 204.739 221.401C204.549 221.123 204.448 220.794 204.449 220.458V203.038C204.449 202.448 204.214 201.883 203.797 201.466C203.381 201.049 202.816 200.815 202.226 200.814H198.66C197.187 200.812 195.774 200.226 194.732 199.184C193.691 198.142 193.105 196.729 193.103 195.255V160.232C193.105 158.758 193.691 157.345 194.732 156.303C195.774 155.26 197.187 154.674 198.66 154.673H324.443C325.916 154.674 327.329 155.26 328.37 156.303C329.412 157.345 329.998 158.758 330 160.232V195.255C329.998 196.729 329.412 198.142 328.37 199.184C327.329 200.226 325.916 200.812 324.443 200.814H227.356C227.048 200.814 226.744 200.879 226.461 201.003C226.179 201.127 225.926 201.308 225.718 201.535L207.345 221.585C207.19 221.755 207.001 221.892 206.79 221.985C206.579 222.079 206.351 222.127 206.121 222.127C205.913 222.127 205.706 222.088 205.512 222.012Z" fill="white"/>
<path d="M205.512 222.012C205.198 221.891 204.928 221.678 204.739 221.401C204.549 221.123 204.448 220.794 204.449 220.458V203.038C204.449 202.448 204.214 201.883 203.797 201.466C203.381 201.049 202.816 200.815 202.226 200.814H198.66C197.187 200.812 195.774 200.226 194.732 199.184C193.691 198.142 193.105 196.729 193.103 195.255V160.232C193.105 158.758 193.691 157.345 194.732 156.303C195.774 155.26 197.187 154.674 198.66 154.673H324.443C325.916 154.674 327.329 155.26 328.37 156.303C329.412 157.345 329.998 158.758 330 160.232V195.255C329.998 196.729 329.412 198.142 328.37 199.184C327.329 200.226 325.916 200.812 324.443 200.814H227.356C227.048 200.814 226.744 200.879 226.461 201.003C226.179 201.127 225.926 201.308 225.718 201.535L207.345 221.585C207.19 221.755 207.001 221.892 206.79 221.985C206.579 222.079 206.351 222.127 206.121 222.127C205.913 222.127 205.706 222.088 205.512 222.012ZM198.66 155.413C197.383 155.415 196.159 155.923 195.256 156.826C194.353 157.729 193.845 158.954 193.844 160.232V195.255C193.845 196.533 194.353 197.757 195.256 198.661C196.159 199.564 197.383 200.072 198.66 200.073H202.226C203.012 200.074 203.765 200.387 204.321 200.943C204.876 201.499 205.189 202.252 205.19 203.038V220.458C205.19 220.645 205.246 220.827 205.352 220.981C205.457 221.135 205.607 221.254 205.781 221.322C205.955 221.389 206.145 221.403 206.327 221.361C206.508 221.318 206.673 221.222 206.799 221.084L225.172 201.035C225.45 200.732 225.787 200.49 226.163 200.325C226.539 200.159 226.946 200.074 227.356 200.073H324.443C325.72 200.072 326.944 199.564 327.847 198.66C328.75 197.757 329.258 196.532 329.259 195.255V160.232C329.258 158.954 328.75 157.729 327.847 156.826C326.944 155.923 325.72 155.415 324.443 155.413H198.66Z" fill="#3F3D56"/>
<path d="M166.307 232.857C161.149 236.162 155.173 237.963 149.049 238.061C142.924 238.158 136.894 236.548 131.633 233.409C132.559 231.686 133.731 230.108 135.114 228.724C137.247 226.58 139.843 224.954 142.702 223.97C145.562 222.986 148.608 222.672 151.609 223.05C154.609 223.428 157.482 224.489 160.008 226.151C162.535 227.813 164.646 230.033 166.181 232.639C166.222 232.709 166.266 232.783 166.307 232.857Z" fill="#6C63FF"/>
<path d="M147.522 215.146C156.561 215.146 163.888 207.817 163.888 198.775C163.888 189.734 156.561 182.404 147.522 182.404C138.484 182.404 131.157 189.734 131.157 198.775C131.157 207.817 138.484 215.146 147.522 215.146Z" fill="#2F2E41"/>
<path d="M159.7 210.322C162.927 204.417 160.757 197.014 154.855 193.786C148.952 190.559 141.551 192.729 138.324 198.633C135.098 204.538 137.267 211.941 143.17 215.169C149.072 218.397 156.473 216.227 159.7 210.322Z" fill="#FFB8B8"/>
<path d="M136.213 196.814C138.997 198.733 142.3 199.754 145.681 199.741C144.475 200.577 143.102 201.142 141.657 201.397C146.152 202.361 150.797 202.387 155.302 201.473C156.303 201.313 157.27 200.981 158.158 200.492C158.601 200.244 158.987 199.907 159.291 199.5C159.595 199.094 159.81 198.628 159.922 198.133C160.221 196.422 158.888 194.868 157.503 193.821C155.383 192.241 152.938 191.153 150.346 190.635C147.754 190.117 145.079 190.181 142.514 190.824C140.84 191.257 139.163 191.989 138.075 193.334C136.988 194.679 136.665 196.753 137.702 198.138L136.213 196.814Z" fill="#2F2E41"/>
<path d="M148.524 238.435C140.509 238.433 132.764 235.54 126.709 230.287C120.654 225.033 116.695 217.773 115.559 209.836C114.422 201.899 116.185 193.819 120.523 187.077C124.861 180.335 131.483 175.384 139.175 173.131C146.867 170.878 155.113 171.476 162.401 174.813C169.688 178.151 175.529 184.005 178.851 191.301C182.172 198.598 182.753 206.848 180.486 214.538C178.218 222.229 173.255 228.843 166.507 233.169C161.141 236.611 154.899 238.439 148.524 238.435ZM148.524 172.509C142.079 172.508 135.779 174.42 130.419 178.001C125.06 181.582 120.883 186.673 118.417 192.629C115.95 198.586 115.305 205.14 116.562 211.463C117.819 217.786 120.923 223.595 125.48 228.154C130.037 232.712 135.843 235.817 142.165 237.075C148.486 238.332 155.038 237.686 160.992 235.219C166.946 232.751 172.035 228.573 175.615 223.212C179.196 217.851 181.106 211.549 181.106 205.102C181.096 196.461 177.66 188.176 171.552 182.066C165.444 175.956 157.162 172.519 148.524 172.509Z" fill="#3F3D56"/>
<path d="M208.751 169.752C211.437 169.752 213.614 167.574 213.614 164.888C213.614 162.201 211.437 160.023 208.751 160.023C206.066 160.023 203.889 162.201 203.889 164.888C203.889 167.574 206.066 169.752 208.751 169.752Z" fill="#6C63FF"/>
<path d="M320.787 191.804H206.351C206.01 191.804 205.673 191.737 205.358 191.607C205.043 191.477 204.756 191.286 204.515 191.045C204.274 190.804 204.083 190.518 203.952 190.203C203.822 189.888 203.754 189.551 203.754 189.21C203.754 188.869 203.822 188.531 203.952 188.216C204.083 187.901 204.274 187.615 204.515 187.374C204.756 187.133 205.043 186.942 205.358 186.812C205.673 186.682 206.01 186.615 206.351 186.615H320.787C321.475 186.615 322.135 186.889 322.621 187.375C323.107 187.862 323.381 188.522 323.381 189.21C323.381 189.898 323.107 190.557 322.621 191.044C322.135 191.531 321.475 191.804 320.787 191.804Z" fill="#E6E6E6"/>
<path d="M283.506 180.778H206.351C206.01 180.778 205.673 180.712 205.358 180.581C205.043 180.451 204.756 180.26 204.515 180.019C204.274 179.778 204.083 179.492 203.952 179.177C203.822 178.862 203.754 178.525 203.754 178.184C203.754 177.843 203.822 177.505 203.952 177.19C204.083 176.875 204.274 176.589 204.515 176.348C204.756 176.107 205.043 175.916 205.358 175.786C205.673 175.656 206.01 175.589 206.351 175.589H283.506C284.193 175.59 284.852 175.864 285.338 176.35C285.824 176.837 286.097 177.496 286.097 178.184C286.097 178.871 285.824 179.531 285.338 180.017C284.852 180.504 284.193 180.777 283.506 180.778Z" fill="#E6E6E6"/>
<path d="M205.356 225.328C210.366 225.328 214.428 224.877 214.428 224.321C214.428 223.764 210.366 223.313 205.356 223.313C200.345 223.313 196.283 223.764 196.283 224.321C196.283 224.877 200.345 225.328 205.356 225.328Z" fill="#F2F2F2"/>
<path d="M124.271 106.808C129.282 106.808 133.344 106.358 133.344 105.801C133.344 105.245 129.282 104.794 124.271 104.794C119.261 104.794 115.199 105.245 115.199 105.801C115.199 106.358 119.261 106.808 124.271 106.808Z" fill="#F2F2F2"/>
</g>
<defs>
<clipPath id="clip0_2632_1880">
<rect width="330" height="276" fill="white"/>
</clipPath>
</defs>
</svg>
