<svg width="320" height="224" viewBox="0 0 320 224" fill="none" xmlns="http://www.w3.org/2000/svg">
<g clip-path="url(#clip0_2632_2012)">
<path d="M270.186 155.558C269.854 155.191 269.607 154.756 269.462 154.284C269.316 153.811 269.276 153.313 269.344 152.823C269.412 152.333 269.587 151.864 269.855 151.449C270.124 151.034 270.48 150.683 270.899 150.421L268.22 138.705L274.063 140.894L275.711 151.684C276.104 152.417 276.215 153.27 276.023 154.079C275.831 154.889 275.348 155.6 274.667 156.078C273.986 156.555 273.154 156.766 272.328 156.67C271.502 156.574 270.739 156.179 270.186 155.558Z" fill="#FFB8B8"/>
<path d="M269.781 146.259L264.645 136.317L265.339 111.283L265.669 111.979C266.054 112.791 275.066 131.892 274.423 138.286L275.454 144.13L269.781 146.259Z" fill="#3F3D56"/>
<path d="M266.432 219.733H270.551L272.51 203.828L266.431 203.829L266.432 219.733Z" fill="#FFB8B8"/>
<path d="M265.381 218.387L273.492 218.386H273.493C274.864 218.387 276.179 218.932 277.148 219.902C278.117 220.873 278.662 222.189 278.662 223.561V223.729L265.382 223.73L265.381 218.387Z" fill="#2F2E41"/>
<path d="M225.737 216.599L229.705 217.704L235.849 202.907L229.992 201.276L225.737 216.599Z" fill="#FFB8B8"/>
<path d="M225.085 215.021L232.9 217.196L232.9 217.196C234.221 217.564 235.342 218.442 236.016 219.637C236.69 220.832 236.863 222.246 236.495 223.568L236.45 223.73L223.655 220.168L225.085 215.021Z" fill="#2F2E41"/>
<path d="M262.326 213.533L254.013 153.949L236.06 213.196L221.944 208.37L242.176 129.037L242.309 129.027L263.504 127.552L278.817 208.717L262.326 213.533Z" fill="#2F2E41"/>
<path d="M260.127 100.96C260.127 100.96 252.401 96.9238 241.986 98.6055C241.986 98.6055 236.443 111.994 241.986 117.324L243.498 130.725C243.498 130.725 257.608 139.134 262.311 129.38L261.639 118.281C261.639 118.281 264.999 112.958 262.311 109.061C260.7 106.68 259.931 103.829 260.127 100.96Z" fill="#6C63FF"/>
<path d="M261.106 161.917L262.462 133.743L258.624 100.227L258.8 100.201C263.835 99.4407 265.45 108.125 265.516 108.495L274.28 158.1L261.106 161.917Z" fill="#3F3D56"/>
<path d="M244.02 162.211L228.527 160.488L228.531 160.318C228.586 158.022 229.92 104.034 233.656 100.21C237.415 96.3637 244.507 98.028 244.808 98.1011L244.957 98.1372L243.682 120.982L244.02 162.211Z" fill="#3F3D56"/>
<path d="M246.874 129.944C246.404 130.098 245.907 130.147 245.417 130.088C244.926 130.029 244.455 129.863 244.036 129.602C243.616 129.341 243.259 128.991 242.99 128.576C242.72 128.162 242.545 127.693 242.475 127.204L230.694 124.893L235.066 120.438L245.583 123.315C246.413 123.253 247.236 123.498 247.897 124.003C248.558 124.508 249.01 125.239 249.169 126.056C249.329 126.873 249.183 127.72 248.76 128.436C248.336 129.153 247.665 129.689 246.874 129.944Z" fill="#FFB8B8"/>
<path d="M240.587 127.239L236.748 126.413C231.081 128.119 221.189 122.112 217.191 119.444C216.439 118.942 216.195 117.947 216.466 116.488C216.866 114.447 217.99 112.619 219.63 111.342L233.711 100.165L237.265 99.5701L238.32 105.559L229.349 115.205L242.555 122.402L240.587 127.239Z" fill="#3F3D56"/>
<path d="M239.068 93.5355V85.7697C239.068 82.4842 240.372 79.3332 242.693 77.01C245.013 74.6868 248.161 73.3816 251.442 73.3816C254.724 73.3816 257.872 74.6868 260.192 77.01C262.513 79.3332 263.816 82.4842 263.816 85.7697V93.5355C263.816 93.9766 263.641 94.3996 263.329 94.7116C263.017 95.0236 262.595 95.199 262.154 95.1995H240.731C240.29 95.199 239.867 95.0236 239.556 94.7116C239.244 94.3996 239.069 93.9766 239.068 93.5355Z" fill="#2F2E41"/>
<path d="M250.945 95.1231C255.956 95.1231 260.017 91.0567 260.017 86.0406C260.017 81.0244 255.956 76.958 250.945 76.958C245.935 76.958 241.873 81.0244 241.873 86.0406C241.873 91.0567 245.935 95.1231 250.945 95.1231Z" fill="#FFB8B8"/>
<path d="M241.624 86.0057C241.537 85.9055 241.473 85.7879 241.436 85.6607C241.399 85.5335 241.389 85.3998 241.408 85.2686L242.483 77.7766C242.504 77.6242 242.563 77.4795 242.654 77.3556C242.745 77.2317 242.866 77.1325 243.005 77.067C248.49 74.4969 254.053 74.4936 259.538 77.0573C259.684 77.1263 259.809 77.232 259.901 77.364C259.994 77.496 260.051 77.6497 260.066 77.8102L260.783 85.3119C260.796 85.4402 260.781 85.5696 260.74 85.6919C260.7 85.8141 260.634 85.9266 260.547 86.0219C260.461 86.1173 260.355 86.1934 260.238 86.2456C260.12 86.2977 259.993 86.3246 259.864 86.3245H258.045C257.869 86.3241 257.697 86.2738 257.549 86.1793C257.401 86.0849 257.283 85.9503 257.208 85.7912L256.423 84.1068C256.372 83.9978 256.287 83.9082 256.181 83.8517C256.075 83.7951 255.953 83.7747 255.834 83.7934C255.716 83.8121 255.606 83.869 255.523 83.9554C255.439 84.0419 255.386 84.1532 255.371 84.2726L255.216 85.5145C255.188 85.738 255.079 85.9436 254.91 86.0927C254.742 86.2418 254.524 86.3242 254.299 86.3245H242.322C242.19 86.3246 242.059 86.2961 241.938 86.2411C241.818 86.1861 241.711 86.1058 241.624 86.0057Z" fill="#2F2E41"/>
<path d="M203.525 14.9272H0V141.809H203.525V14.9272Z" fill="#E6E6E6"/>
<path d="M50.9236 39.3706H13.6479V63.6274H50.9236V39.3706Z" fill="white"/>
<path d="M97.2415 39.3706H59.9658V63.6274H97.2415V39.3706Z" fill="white"/>
<path d="M143.559 39.3706H106.284V63.6274H143.559V39.3706Z" fill="white"/>
<path d="M189.877 39.3706H152.602V63.6274H189.877V39.3706Z" fill="white"/>
<path d="M50.9236 73.7034H13.6479V97.9602H50.9236V73.7034Z" fill="white"/>
<path d="M97.2415 73.7034H59.9658V97.9602H97.2415V73.7034Z" fill="white"/>
<path d="M143.559 73.7034H106.284V97.9602H143.559V73.7034Z" fill="white"/>
<path d="M189.877 73.7034H152.602V97.9602H189.877V73.7034Z" fill="white"/>
<path d="M50.9236 108.036H13.6479V132.293H50.9236V108.036Z" fill="white"/>
<path d="M97.2415 108.036H59.9658V132.293H97.2415V108.036Z" fill="white"/>
<path d="M143.559 108.036H106.284V132.293H143.559V108.036Z" fill="white"/>
<path d="M189.877 108.036H152.602V132.293H189.877V108.036Z" fill="white"/>
<path d="M53.3042 29.8546C56.3923 29.8546 58.8956 27.3485 58.8956 24.2569C58.8956 21.1654 56.3923 18.6592 53.3042 18.6592C50.2162 18.6592 47.7129 21.1654 47.7129 24.2569C47.7129 27.3485 50.2162 29.8546 53.3042 29.8546Z" fill="white"/>
<path d="M145.748 29.8546C148.836 29.8546 151.339 27.3484 151.339 24.2569C151.339 21.1654 148.836 18.6592 145.748 18.6592C142.66 18.6592 140.156 21.1654 140.156 24.2569C140.156 27.3484 142.66 29.8546 145.748 29.8546Z" fill="white"/>
<path d="M55.541 0H51.0679V25.7496H55.541V0Z" fill="#E6E6E6"/>
<path d="M147.984 0H143.511V25.7496H147.984V0Z" fill="#E6E6E6"/>
<path d="M179.669 51.4992C179.667 53.5258 178.935 55.4836 177.606 57.0129C176.278 58.5422 174.443 59.5403 172.439 59.8238C170.435 60.1072 168.395 59.657 166.696 58.5559C164.997 57.4548 163.751 55.7767 163.189 53.83C162.626 51.8832 162.784 49.7986 163.634 47.9592C164.483 46.1198 165.967 44.6491 167.813 43.8173C169.659 42.9856 171.743 42.8487 173.682 43.4318C175.62 44.0149 177.284 45.2787 178.366 46.9912C179.218 48.3398 179.67 49.9033 179.669 51.4992Z" fill="#6C63FF"/>
<path d="M178.366 46.9912L170.069 55.2968C169.547 54.4885 166.642 50.732 166.642 50.732C167.014 50.3553 167.411 50.0041 167.831 49.681L170.24 52.897L177.394 45.7346C177.757 46.1218 178.083 46.5426 178.366 46.9912Z" fill="white"/>
<path d="M87.033 85.832C87.0311 87.8585 86.2988 89.8163 84.9705 91.3456C83.6423 92.875 81.8075 93.873 79.8031 94.1565C77.7988 94.44 75.7595 93.9898 74.0602 92.8887C72.3608 91.7875 71.1154 90.1094 70.5528 88.1627C69.9903 86.216 70.1483 84.1314 70.9979 82.292C71.8475 80.4525 73.3316 78.9818 75.1775 78.1501C77.0234 77.3184 79.1072 77.1815 81.0458 77.7645C82.9845 78.3476 84.6479 79.6115 85.7303 81.324C86.5827 82.6726 87.0346 84.236 87.033 85.832Z" fill="#6C63FF"/>
<path d="M85.7303 81.324L77.4328 89.6295C76.9113 88.8212 74.0059 85.0648 74.0059 85.0648C74.3782 84.688 74.7755 84.3369 75.1952 84.0138L77.6044 87.2298L84.7587 80.0674C85.1215 80.4546 85.4468 80.8754 85.7303 81.324Z" fill="white"/>
<path d="M40.7153 85.832C40.7133 87.8586 39.981 89.8164 38.6528 91.3457C37.3245 92.875 35.4897 93.8731 33.4853 94.1566C31.4809 94.4401 29.4417 93.9899 27.7423 92.8887C26.0429 91.7876 24.7975 90.1095 24.235 88.1628C23.6724 86.216 23.8304 84.1314 24.68 82.292C25.5296 80.4525 27.0138 78.9818 28.8597 78.1501C30.7056 77.3184 32.7894 77.1815 34.728 77.7645C36.6667 78.3476 38.3301 79.6115 39.4125 81.324C40.265 82.6726 40.7168 84.2361 40.7153 85.832Z" fill="#6C63FF"/>
<path d="M39.4125 81.324L31.1149 89.6295C30.5934 88.8212 27.688 85.0648 27.688 85.0648C28.0603 84.688 28.4577 84.3369 28.8773 84.0138L31.2866 87.2298L38.4408 80.0674C38.8036 80.4546 39.129 80.8754 39.4125 81.324Z" fill="white"/>
<path d="M319.631 224H178.899C178.801 224 178.707 223.961 178.638 223.892C178.569 223.822 178.53 223.728 178.53 223.63C178.53 223.532 178.569 223.438 178.638 223.369C178.707 223.299 178.801 223.26 178.899 223.26H319.631C319.729 223.26 319.823 223.299 319.892 223.369C319.961 223.438 320 223.532 320 223.63C320 223.728 319.961 223.822 319.892 223.892C319.823 223.961 319.729 224 319.631 224Z" fill="#3F3D56"/>
</g>
<defs>
<clipPath id="clip0_2632_2012">
<rect width="320" height="224" fill="white"/>
</clipPath>
</defs>
</svg>
