<svg width="243" height="307" viewBox="0 0 243 307" fill="none" xmlns="http://www.w3.org/2000/svg">
<g clip-path="url(#clip0_2632_1940)">
<path d="M242.698 307H0.301631C0.135081 307 0 306.808 0 306.569C0 306.33 0.135081 306.138 0.301631 306.138H242.698C242.865 306.138 243 306.33 243 306.569C243 306.808 242.865 307 242.698 307Z" fill="#CBCBCB"/>
<path d="M176.928 72.8927H175.243V26.7224C175.243 23.2132 174.552 19.7384 173.209 16.4963C171.866 13.2542 169.898 10.3084 167.417 7.82698C164.936 5.34557 161.99 3.3772 158.749 2.03424C155.507 0.691286 152.032 5.03988e-05 148.523 0L50.7117 0C43.6252 0.000101783 36.8289 2.81549 31.8179 7.82682C26.807 12.8382 23.9918 19.635 23.9917 26.722V280.019C23.9917 287.106 26.8068 293.903 31.8178 298.914C36.8288 303.926 43.6251 306.741 50.7117 306.741H148.523C155.61 306.741 162.406 303.926 167.418 298.915C172.429 293.903 175.244 287.106 175.244 280.019V105.758H176.929L176.928 72.8927Z" fill="#3F3D56"/>
<path d="M169.557 26.9096V279.832C169.559 282.451 169.046 285.044 168.046 287.464C167.046 289.884 165.58 292.083 163.73 293.936C161.88 295.79 159.684 297.26 157.266 298.264C154.848 299.269 152.255 299.787 149.637 299.789H51.3195C48.7008 299.791 46.1074 299.277 43.6873 298.276C41.2672 297.276 39.0679 295.809 37.2149 293.958C35.3619 292.107 33.8915 289.91 32.8876 287.491C31.8838 285.072 31.3661 282.48 31.3643 279.861V26.9096C31.3624 24.2907 31.8763 21.6971 32.8767 19.2769C33.8772 16.8566 35.3444 14.6571 37.1948 12.804C39.0452 10.9508 41.2424 9.48028 43.6611 8.47636C46.0797 7.47243 48.6724 6.95475 51.2911 6.95289H63.2416C62.6543 8.39244 62.4302 9.95435 62.5888 11.501C62.7475 13.0476 63.2841 14.5314 64.1513 15.8218C65.0186 17.1121 66.1899 18.1693 67.562 18.9002C68.9341 19.6311 70.4649 20.0133 72.0196 20.013H128.057C129.612 20.0133 131.143 19.6311 132.515 18.9002C133.887 18.1693 135.058 17.1121 135.925 15.8218C136.793 14.5314 137.329 13.0476 137.488 11.501C137.647 9.95435 137.422 8.39244 136.835 6.95289H149.602C152.22 6.95052 154.813 7.4639 157.233 8.46373C159.652 9.46355 161.852 10.9302 163.705 12.78C165.558 14.6298 167.028 16.8265 168.032 19.2447C169.036 21.6629 169.554 24.2551 169.557 26.8735V26.9096Z" fill="white"/>
<path d="M169.557 64.329V55.7157H156.519V8.18534C154.304 7.36751 151.962 6.95035 149.602 6.95339H147.905V55.7157H102.679V20.0135H94.065V55.7157H56.162V6.95339H51.3209C50.0547 6.95147 48.7912 7.07124 47.5479 7.31108V55.7157H31.3657V64.3309H47.5475V84.2577L31.3657 93.6005V103.551L47.5475 94.208V153.494H31.3657V162.109H47.5475V247.828H31.3657V256.443H47.5475V299.431C48.7908 299.671 50.0543 299.791 51.3206 299.789H56.1616V256.443H94.0646V299.789H102.679V256.443H147.905V299.789H149.602C151.962 299.792 154.304 299.375 156.519 298.557V256.443H169.556V247.828H156.519V210.353H169.44V201.738H156.519V162.109H169.556V153.494H156.519V100.943H169.556V92.3286H156.519V64.329H169.557ZM82.0608 64.329L56.162 79.2846V64.329H82.0608ZM56.1616 89.2307L94.065 67.3443V153.494H56.162L56.1616 89.2307ZM56.1616 247.828V162.109H94.0646V247.828H56.1616ZM147.904 247.828H102.679V210.353H147.905L147.904 247.828ZM147.904 201.738H102.679V162.109H147.905L147.904 201.738ZM147.904 153.494H102.679V100.943H147.905L147.904 153.494ZM147.904 92.3279H102.679V64.329H147.905L147.904 92.3279Z" fill="#F2F2F2"/>
<path d="M159.285 64.4279C159.285 79.638 131.747 113.521 131.747 113.521C131.747 113.521 104.208 79.638 104.208 64.4279C104.236 57.1417 107.149 50.1631 112.31 45.0205C117.472 39.8779 124.461 36.9905 131.746 36.9905C139.032 36.9905 146.021 39.8779 151.183 45.0205C156.344 50.1631 159.257 57.1417 159.284 64.4279H159.285Z" fill="#6C63FF"/>
<path d="M148.031 63.231C148.031 66.4518 147.076 69.6003 145.287 72.2783C143.497 74.9563 140.954 77.0435 137.979 78.2761C135.003 79.5086 131.729 79.8311 128.571 79.2028C125.412 78.5744 122.51 77.0234 120.233 74.746C117.956 72.4685 116.405 69.5669 115.777 66.408C115.148 63.249 115.471 59.9747 116.703 56.9991C117.936 54.0235 120.023 51.4801 122.701 49.6908C125.379 47.9014 128.527 46.9463 131.747 46.9463C133.885 46.9453 136.001 47.3653 137.976 48.1824C139.952 48.9995 141.746 50.1976 143.258 51.7084C144.77 53.2192 145.97 55.0131 146.789 56.9875C147.608 58.962 148.03 61.0784 148.031 63.216V63.231Z" fill="white"/>
<path d="M131.747 133.398C135.846 133.398 139.17 130.075 139.17 125.974C139.17 121.874 135.846 118.551 131.747 118.551C127.647 118.551 124.323 121.874 124.323 125.974C124.323 130.075 127.647 133.398 131.747 133.398Z" fill="#6C63FF"/>
<path d="M184.914 147.104L175.86 150.311L177.155 139.764L183.349 139.192C182.725 141.863 183.306 144.499 184.914 147.104Z" fill="#9F616A"/>
<path d="M187.138 176.441L188.289 179.118L186.409 188.626L167.221 185.958L167.375 174.364L167.758 171.825L187.138 176.441Z" fill="#FFB6B6"/>
<path d="M197.825 299.665H191.372L188.877 277.465H197.825V299.665Z" fill="#9F616A"/>
<path d="M175.045 299.665H168.83L165.175 275.624H175.044L175.045 299.665Z" fill="#9F616A"/>
<path d="M155.591 303.701L166.311 299.26V296.36L169.169 296.407L174.999 296.691L176.52 296.763L177.577 307H173.825L173.159 304.134L171.443 307H156.863C156.421 307.023 155.983 306.914 155.603 306.688C155.223 306.461 154.919 306.128 154.728 305.728C154.596 305.343 154.611 304.923 154.77 304.548C154.93 304.174 155.223 303.872 155.593 303.701L155.591 303.701Z" fill="#090814"/>
<path d="M198.549 278.778C199.086 256.965 198.322 247.181 196.842 220.718C199.555 203.133 186.624 191.662 186.624 191.662L187.814 182.446L166.899 182.921L167.255 191.664L161.848 206.35C159.661 227.675 164.915 278.378 165.344 278.23C176.952 278.201 175.091 278.778 175.091 278.778C177.066 272.027 176.895 269.926 176.281 248.582L177.849 224.701L183.785 254.067L188.434 278.778C188.144 279.038 199.061 278.77 198.549 278.778Z" fill="#090814"/>
<path d="M191.529 131.262C191.53 132.957 191.114 134.626 190.319 136.123C189.524 137.62 188.374 138.899 186.969 139.848C185.564 140.797 183.948 141.386 182.263 141.565C180.577 141.743 178.874 141.505 177.301 140.871C175.729 140.237 174.337 139.227 173.246 137.929C172.156 136.631 171.4 135.086 171.047 133.428C170.693 131.77 170.751 130.051 171.217 128.421C171.682 126.791 172.541 125.3 173.717 124.08L173.767 124.03C173.85 123.943 173.933 123.856 174.02 123.773C174.021 123.774 174.022 123.774 174.023 123.773C174.023 123.772 174.023 123.771 174.023 123.77C174.142 123.683 174.252 123.585 174.35 123.476C175.748 121.522 177.333 119.885 181.172 120.908C186.701 122.378 191.529 125.54 191.529 131.262Z" fill="#090814"/>
<path d="M134.644 126.828C134.62 127.382 134.718 127.935 134.931 128.447C135.145 128.959 135.468 129.418 135.877 129.792C136.287 130.165 136.774 130.445 137.303 130.61C137.833 130.775 138.392 130.822 138.942 130.748L165.648 152.669L169.727 145.496L142.193 126.204C142.007 125.29 141.492 124.475 140.745 123.914C139.999 123.354 139.072 123.087 138.142 123.164C137.212 123.24 136.342 123.656 135.697 124.331C135.053 125.006 134.678 125.894 134.644 126.827L134.644 126.828Z" fill="#9F616A"/>
<path d="M176.925 159.132C176.925 159.132 176.055 160.936 172.671 158.373C169.962 156.32 157.029 147.462 154.157 143.719C153.554 143.991 152.878 144.055 152.235 143.901C151.592 143.747 151.018 143.383 150.604 142.867L157.67 136.064C159.888 136.214 159.91 137.697 159.72 138.549L165.4 140.806L180.19 149.303L177.578 157.838L176.925 159.132Z" fill="#E6E6E6"/>
<path d="M178.622 142.342C183.417 142.342 187.305 138.454 187.305 133.658C187.305 128.862 183.417 124.974 178.622 124.974C173.826 124.974 169.938 128.862 169.938 133.658C169.938 138.454 173.826 142.342 178.622 142.342Z" fill="#9F616A"/>
<path d="M166.777 176.733L166.688 171.889C166.336 171.405 163.381 167.18 164.043 162.96C164.208 161.959 164.577 161.003 165.127 160.15C165.677 159.298 166.396 158.568 167.24 158.005L168.408 155.288L170.135 151.271L175.191 148.261L175.892 146.834L176.467 145.65L184.23 145.084L185.162 147.267L185.196 147.271C186.776 147.63 188.26 148.325 189.547 149.309C190.961 150.381 192.107 151.767 192.895 153.357C193.683 154.946 194.092 156.697 194.09 158.471L194.047 164.101L194.039 164.907L194.035 165.689L189.683 177.403L189.518 177.857L187.811 182.447L188.104 182.931C188.419 183.458 188.536 184.081 188.432 184.686C188.329 185.292 188.012 185.84 187.539 186.232L187.335 189.102L186.966 189L184.864 188.414L166.775 189.101C166.775 189.101 165.699 178.169 166.777 176.733Z" fill="#E6E6E6"/>
<path d="M187.71 135.935C187.632 135.922 187.553 135.904 187.474 135.894C186.12 135.653 184.765 135.417 183.414 135.173L183.29 132.112L181.654 134.854C177.922 136.092 174.43 135.391 171.145 133.846C170.062 133.332 169.011 132.752 167.999 132.111C167.665 126.934 169.758 123.619 173.653 123.967C173.795 123.979 173.897 123.834 174.022 123.772C174.023 123.772 174.024 123.772 174.025 123.772C174.025 123.771 174.025 123.769 174.025 123.768C174.236 123.669 174.452 123.574 174.665 123.487C176.352 122.828 178.19 122.661 179.968 123.005C181.745 123.35 183.388 124.192 184.706 125.434C187.358 127.964 188.551 132.144 187.71 135.935Z" fill="#090814"/>
<path d="M182.052 121.155C182.139 121.455 182.311 121.722 182.546 121.926C182.782 122.129 183.072 122.26 183.381 122.302C184.549 123.745 185.886 125.274 187.717 125.564C188.24 125.675 188.786 125.581 189.242 125.301C189.297 125.266 189.349 125.225 189.395 125.179C189.828 124.767 189.862 123.939 189.348 123.629C191.651 124.542 192.994 127.026 193.335 129.475C193.676 131.925 193.203 134.4 192.894 136.854C192.584 139.308 192.448 141.886 193.413 144.166C194.55 146.852 197.166 148.785 200.019 149.401C200.273 149.456 206.605 149.069 208.496 148.055C211.082 146.692 213.234 144.611 214.996 142.281C211.961 144.433 207.766 145.24 204.464 143.537C201.509 142.009 199.763 138.799 199 135.564C198.236 132.328 201.447 128.355 201.099 125.048C200.751 121.741 196.758 118.933 194.575 116.424C193.183 114.823 191.128 113.639 189.011 113.838C188.295 113.906 187.603 114.128 186.981 114.488C186.358 114.848 185.821 115.338 185.405 115.924C184.99 116.511 184.705 117.18 184.571 117.886C184.437 118.592 184.457 119.319 184.63 120.017C184.027 119.162 182.469 119.35 182.082 120.324C181.978 120.59 181.968 120.883 182.052 121.155Z" fill="#090814"/>
<path d="M187.474 135.893C187.474 135.893 184.903 126.29 173.875 124.074C173.863 124.07 173.822 124.053 173.767 124.028C173.73 124.006 173.692 123.985 173.652 123.967C173.777 123.897 173.896 123.835 174.021 123.772C174.022 123.773 174.023 123.773 174.024 123.772C174.025 123.771 174.025 123.77 174.024 123.769C174.132 123.67 174.24 123.57 174.352 123.475L174.666 123.488C174.666 123.488 185.731 121.734 187.474 135.893Z" fill="#6C63FF"/>
<path d="M194.056 204.994C194.401 204.56 194.647 204.056 194.775 203.516C194.904 202.977 194.913 202.416 194.802 201.872C194.69 201.329 194.461 200.817 194.13 200.372C193.799 199.927 193.375 199.56 192.887 199.296L198.596 182.395L193.934 164.481L186.417 167.879L191.055 181.391L187.584 201.055C187.194 201.905 187.13 202.868 187.403 203.762C187.677 204.656 188.269 205.419 189.068 205.905C189.866 206.391 190.816 206.566 191.735 206.398C192.655 206.23 193.481 205.731 194.056 204.994V204.994Z" fill="#9F616A"/>
<path d="M187.175 149.724C187.175 149.724 188.94 148.776 190.168 152.841C191.151 156.095 197.84 173.762 197.961 178.48C198.608 178.614 199.193 178.96 199.622 179.463C200.052 179.966 200.301 180.597 200.332 181.258L190.617 182.601C188.912 181.176 189.767 179.962 190.421 179.385L187.112 173.779L180.195 158.646L185.884 150.384L187.175 149.724Z" fill="#E6E6E6"/>
<path d="M181.476 303.701L190.149 299.26V296.36L192.462 296.407L197.179 296.691L198.41 296.763L199.264 307H196.229L195.691 304.134L194.303 307H182.505C182.119 307 181.743 306.877 181.432 306.648C181.121 306.419 180.891 306.097 180.776 305.728C180.661 305.359 180.668 304.963 180.794 304.598C180.92 304.233 181.16 303.918 181.478 303.699L181.476 303.701Z" fill="#090814"/>
</g>
<defs>
<clipPath id="clip0_2632_1940">
<rect width="243" height="307" fill="white"/>
</clipPath>
</defs>
</svg>
